<?xml version="1.0" standalone="no"?>
<!DOCTYPE svg PUBLIC "-//W3C//DTD SVG 1.1//EN" "http://www.w3.org/Graphics/SVG/1.1/DTD/svg11.dtd" >
<svg xmlns="http://www.w3.org/2000/svg">
<metadata>
This is a custom SVG webfont generated by Font Squirrel.
Copyright   : Copyright c 2012 Pablo Impallari wwwimpallaricomimpallarigmailcomCopyright c 2012 Brenda Gallo gbrenda1987gmailcomCopyright c 2012 Rodrigo Fuenzalida wwwrfuenzalidacomhellorfuenzalidacom with Reserved Font Name NewRocker
Designer    : Pablo Impallari Brenda Gallo Rodrigo Fuenzalida
Foundry     : Pablo Impallari Brenda Gallo Rodrigo Fuenzalida
Foundry URL : wwwimpallaricom
</metadata>
<defs>
<font id="NewRockerRegular" horiz-adv-x="1495" >
<font-face units-per-em="2048" ascent="1638" descent="-410" />
<missing-glyph horiz-adv-x="460" />
<glyph unicode=" "  horiz-adv-x="460" />
<glyph unicode="&#x09;" horiz-adv-x="460" />
<glyph unicode="&#xa0;" horiz-adv-x="460" />
<glyph unicode="!" horiz-adv-x="612" d="M115 45q90 154 196 209q23 -29 89.5 -80t103.5 -74q-78 -55 -124 -101t-77 -110q-14 18 -49 47t-84 67t-55 42zM150 412q37 76 36 231v741q0 156 -36 232h327q-35 -96 -35 -230v-745q0 -133 35 -229h-327z" />
<glyph unicode="&#x22;" horiz-adv-x="724" d="M80 1501q37 -6 117 -6q82 0 131 4q-41 -125 -72 -389q-31 2 -66.5 6t-60.5 4q-35 313 -49 381zM408 1501q37 -6 116 -6q82 0 131 4q-41 -125 -71 -389q-31 2 -66.5 6t-60.5 4q-35 313 -49 381z" />
<glyph unicode="#" horiz-adv-x="1435" d="M84 453v262q76 -37 231 -37h41l62 240q-137 0 -234 -35v262q76 -37 232 -37h53l43 164q35 127 35 205q0 12 -4 24h295q-88 -47 -136 -227l-43 -166h240l43 164q35 127 35 205q0 12 -4 24h295q-31 -16 -71 -75.5t-64 -151.5l-43 -166h45q156 0 231 37v-262q-96 35 -229 35 h-99l-63 -240h59q156 0 232 37v-262q-96 35 -230 34h-110l-68 -258q-33 -131 -33 -204q0 -12 4 -25h-294q86 47 133 227l67 260h-239l-68 -258q-33 -141 -33 -204q0 -12 4 -25h-295q86 45 134 227l67 260q-129 -4 -221 -34zM545 678h241l62 240h-240z" />
<glyph unicode="$" horiz-adv-x="1234" d="M61 1303q18 -2 58 -3q193 0 370 93q-4 133 -36 217h327q-27 -84 -32 -195q135 -63 378 -74q-39 -49 -59 -121.5t-23.5 -120.5t-3.5 -130q-92 4 -158.5 58t-90.5 147q-27 0 -51.5 8t-39 16t-39 24.5t-34.5 22.5q-80 -74 -176 -117v-161l677 -240q-10 -86 -10 -174 q0 -63 3 -108.5t9.5 -104.5t10.5 -111q-154 -57 -314 -188q0 -131 35 -227h-327q37 76 36 231v31q-164 74 -295 110q-10 -10 -32.5 -30.5t-31.5 -27.5t-26.5 -15.5t-38.5 -8.5q10 106 17.5 287.5t13.5 265.5q104 0 172 -60t68 -187q74 -35 126 -55.5t125.5 -43t100.5 -30.5 q18 23 48 52.5t44 47.5l-14 154l-651 270q-10 76 -15.5 186.5t-7.5 132.5q-113 33 -113 179z" />
<glyph unicode="%" horiz-adv-x="1626" d="M63 971q20 47 21 293q0 51 -2 147.5t-2 116.5q74 4 177 27.5t165 62.5q76 -63 231 -80v-577q-80 -18 -158.5 -64.5t-107.5 -79.5q-35 33 -150.5 84t-173.5 70zM272 1051q136 -45 179 -78l4 483q-31 0 -88.5 18.5t-92.5 43.5q4 -94 5 -242q0 -115 -7 -225zM283 0 q63 34 149 227l522 1157q49 123 50 205q0 12 -5 25h316q-63 -35 -150 -228l-522 -1157q-49 -123 -49 -204q0 -12 4 -25h-315zM954 154q20 47 21 292q0 51 -2 148t-2 117q74 4 177 27.5t165 62.5q76 -63 231 -80v-578q-80 -18 -158.5 -64t-107.5 -79q-35 33 -150.5 84 t-173.5 70zM1163 233q135 -44 178 -77l5 483q-31 0 -88.5 18.5t-92.5 42.5q4 -94 4 -241q0 -115 -6 -226z" />
<glyph unicode="&#x26;" horiz-adv-x="1525" d="M100 178q23 315 23 426q0 88 -10 174l211 115l-134 147q-4 109 -26 342q213 61 395 199q59 -33 252 -96q20 16 39 53q84 -53 209 -63q-39 -66 -110.5 -242t-143.5 -326q-14 55 -41 193.5t-41 206.5q-100 14 -188 55q-53 -57 -119 -80l18 -141l508 -590l109 319 q104 -39 422 -106q-35 -43 -110 -72.5t-142 -29.5l-105 -269l365 -276l-142 -193l-389 283q-209 -135 -317 -244q-242 154 -514 211q-2 0 -9.5 1t-9.5 3zM379 330q45 -2 126 -35t126 -66q51 51 168 138l-322 356l-84 -55z" />
<glyph unicode="'" horiz-adv-x="397" d="M80 1501q37 -6 117 -6q82 0 131 4q-41 -125 -72 -389q-31 2 -66.5 6t-60.5 4q-35 313 -49 381z" />
<glyph unicode="(" horiz-adv-x="886" d="M78 692q0 246 99 468t272 323q-6 4 -29 21.5t-46.5 32.5t-45.5 22q231 55 366 55q92 0 221 -19q-147 -29 -254.5 -114.5t-166 -214.5t-85 -270.5t-26.5 -303.5t26.5 -302t85 -265t166 -210t254.5 -114q-147 -10 -227 -10q-166 0 -360 47q23 6 46 21.5t45.5 33t29.5 21.5 q-184 115 -277.5 325.5t-93.5 452.5z" />
<glyph unicode=")" horiz-adv-x="886" d="M-29 -199q147 29 255 114t166.5 210t85 265t26.5 302t-26.5 303.5t-85 270.5t-166 215t-255.5 114q129 18 222 19q135 0 366 -55q-23 -6 -46.5 -21.5t-46 -33t-28.5 -21.5q172 -100 271.5 -322.5t99.5 -468.5q0 -242 -93 -452.5t-278 -325.5q6 -4 28.5 -21.5t46.5 -33 t46 -21.5q-195 -47 -360 -47q-80 0 -228 10z" />
<glyph unicode="*" horiz-adv-x="892" d="M74 1331q23 27 116 195q90 -104 205 -205q-10 53 -33.5 159.5t-29.5 133.5q37 -6 106 -6q72 0 121 4q-45 -137 -76 -283q33 29 113 102.5t111 100.5q8 -20 29.5 -60t48 -84.5t32.5 -54.5q-135 -25 -299 -80q168 -59 301 -84q-104 -176 -110 -198q-14 14 -96.5 89 t-123.5 109q33 -162 76 -282q-49 4 -121 4q-70 0 -106 -6q2 8 27.5 121.5t35.5 169.5q-129 -111 -208 -209q-47 100 -115 196q90 25 262 82q-39 14 -87 29.5t-103.5 33t-75.5 23.5z" />
<glyph unicode="+" horiz-adv-x="974" d="M100 596v283q76 -37 232 -37h49v49q0 156 -37 231h283q-35 -96 -35 -229v-51h49q156 0 231 37v-283q-96 35 -229 35h-51v-51q0 -133 35 -230h-283q37 76 37 232v49h-51q-133 0 -230 -35z" />
<glyph unicode="," horiz-adv-x="460" d="M74 92q45 37 67.5 81t42.5 122q68 0 130.5 -54.5t68.5 -158.5q-25 -72 -44.5 -116t-57 -111.5t-90 -109.5t-117.5 -56q51 96 51 217q0 114 -51 186z" />
<glyph unicode="-" horiz-adv-x="919" d="M125 406v282q76 -37 231 -37h207q156 0 232 37v-282q-96 35 -230 34h-211q-133 0 -229 -34z" />
<glyph unicode="." horiz-adv-x="493" d="M55 45q90 154 197 209q23 -29 89.5 -80t102.5 -74q-78 -55 -124 -101t-76 -110q-14 18 -49 47t-84.5 67t-55.5 42z" />
<glyph unicode="/" horiz-adv-x="1212" d="M37 0q90 49 186 227l559 1045q82 152 82 229h316q-90 -49 -187 -227l-559 -1045q-82 -152 -82 -229h-315z" />
<glyph unicode="0" horiz-adv-x="1122" d="M119 244q37 84 37 571q0 213 -6 520q199 10 466 174q98 -84 167 -113.5t184 -39.5v-1133q-55 -12 -108.5 -35.5t-88.5 -44t-78 -57.5t-59.5 -52.5t-51 -52t-36.5 -38.5q-80 78 -220.5 177t-205.5 124zM426 401q4 -2 51 -30.5t106.5 -65.5t90.5 -57l4 944 q-14 6 -67.5 27.5t-95.5 43t-85 52.5q6 -276 6 -473q0 -260 -10 -441z" />
<glyph unicode="1" horiz-adv-x="854" d="M0 1163q98 31 173 127t122 217q29 -33 62.5 -56.5t77.5 -39.5t68.5 -23.5t74 -16.5t53.5 -11v-1008q0 -139 117 -139q20 0 57 8q-18 -23 -69.5 -64.5t-115 -91t-88.5 -69.5q-18 10 -81.5 56t-100.5 63v1124q-23 -51 -81 -81t-128 -30q-76 0 -141 35z" />
<glyph unicode="2" horiz-adv-x="1126" d="M61 1270q86 18 219.5 94t186.5 145q96 -82 244.5 -144t224.5 -62q14 0 20 2q-20 -37 -20 -115v-152q0 -53 16.5 -125.5t42.5 -109.5q-283 -51 -418 -170t-206 -316q123 37 211 37q156 0 297 -73l10 8q10 8 16 13t19.5 12.5t26 12.5t29.5 8t36 3q31 0 63 -8l-264 -342 q-49 33 -81 50t-89 33.5t-119 16.5q-192 0 -391 -156q-25 88 -24 191q0 258 149.5 496.5t394.5 338.5v306q-170 -70 -348 -70t-246 76z" />
<glyph unicode="3" horiz-adv-x="1032" d="M84 1380q260 47 381 125q201 -143 416 -143q4 0 13 1t15 1q-45 -141 -45 -438q-63 -20 -143 -52t-105 -40q49 -27 117 -54.5t106 -43t38 -21.5q0 -80 18 -333t31 -271q-125 -2 -310.5 -44t-257.5 -87q-35 37 -118.5 87t-143.5 62q20 72 21 150q0 55 -11 102q33 4 50 4 q176 0 276 -188l182 43q-2 12 -5 210.5t-3 206.5l-207 121l-82 -47l-84 109l84 94l82 -53l195 80q0 35 -3 103.5t-3 102.5q0 49 6 103q-74 -68 -191 -68q-98 0 -187 48t-132 130z" />
<glyph unicode="4" horiz-adv-x="1144" d="M33 664q49 33 251.5 369.5t227.5 475.5q111 -127 377 -147v-733h145q10 -184 47 -244q-4 4 -14 12.5t-13 11.5t-12.5 9t-15.5 7t-17.5 4t-24.5 4t-30 1h-65v-82q0 -139 117 -139q20 0 57 8q-18 -23 -69.5 -64.5t-115 -91t-87.5 -69.5q-20 10 -83 49t-96 55l4 334h-266 q-233 0 -295 -14q10 51 11 92q0 119 -33 152zM295 629h336v612q-201 -451 -336 -612z" />
<glyph unicode="5" horiz-adv-x="1058" d="M49 68q47 115 125 176t164 61q63 0 158.5 -23.5t134.5 -62.5q-2 8 -3 112.5t-2 247t-1 191.5q-240 -96 -328 -137q-18 10 -75.5 34.5t-76.5 32.5q35 90 35 324q0 145 -13 288.5t-28 190.5q238 -59 416 -59q254 0 389 61q-18 -123 -81.5 -190.5t-215.5 -67.5 q-53 0 -213 43q6 -51 6 -205q0 -35 -3 -103.5t-3 -102.5l320 118l166 -118q0 -735 20 -768q-119 -2 -275.5 -43t-230.5 -88q-102 121 -233 120q-72 0 -152 -32z" />
<glyph unicode="6" horiz-adv-x="1058" d="M109 111q2 8 14 82.5t20.5 134t16.5 173t8 232.5q0 164 -11.5 369t-31.5 262q6 0 15.5 -1t13.5 -1q215 0 415 143q121 -78 381 -125q-43 -82 -132 -130t-187 -48q-117 0 -191 68q6 -53 6 -103q0 -35 -3 -154.5t-3 -154.5l250 156q92 -106 246 -158q-31 -129 -31 -309 q0 -188 33 -418q-131 -2 -267.5 -50t-199.5 -99q-66 43 -103.5 63t-110.5 44t-148 24zM436 268l96 -71q6 16 24.5 33.5t37 27.5t37 19.5t20.5 11.5v508l-215 -140v-389z" />
<glyph unicode="7" horiz-adv-x="1046" d="M25 1075q61 111 86.5 197t38.5 233q176 -84 421 -84q233 0 455 74q-25 -70 -25 -131q0 -25 9 -61q-31 -41 -91.5 -120t-86 -114t-73.5 -98.5t-68.5 -96t-53.5 -86t-46 -87t-29.5 -77.5t-23 -83t-6.5 -80q0 -35 19.5 -67t46.5 -32q10 0 20.5 7.5t27 19t30.5 19.5 q41 -78 131 -111q-70 -6 -142.5 -96t-91.5 -205q-139 66 -238 180.5t-99 241.5q0 315 464 786q-164 -41 -266 -41t-209 35q-51 -131 -143 -131q-27 0 -57 8z" />
<glyph unicode="8" horiz-adv-x="1087" d="M129 244q18 43 18 211q0 41 -1 141t-1 152l242 61l-242 20q0 230 -6 506q125 18 216 54t231 120q170 -145 405 -151q0 -29 -18.5 -56.5t-36.5 -33.5v-439l-219 -20l172 -59l47 -58v-469q-152 -35 -260.5 -117.5t-161.5 -158.5q-59 78 -186 174t-199 123zM416 401 q4 -4 45 -30.5t97 -64.5t87 -58v434l-96 82l-133 -64v-299zM422 1331q2 -41 3 -176t1 -199l94 -90l127 29v297q-78 35 -225 139z" />
<glyph unicode="9" horiz-adv-x="1054" d="M106 104q43 82 132.5 130.5t187.5 48.5q117 0 190 -68q-6 53 -6 102q0 35 3 155t3 155l-249 -156q-92 106 -246 158q31 129 31 309q0 188 -33 418q131 2 267.5 50t199.5 99q66 -43 103.5 -63.5t110 -44t148.5 -23.5q-2 -8 -14 -82.5t-20.5 -134t-16.5 -173.5t-8 -232 q0 -164 11 -369t32 -262q-6 0 -15.5 1t-13.5 1q-215 0 -416 -143q-121 78 -381 124zM406 688l215 139v390l-97 71q-6 -16 -24.5 -33.5t-37 -27.5t-36.5 -19.5t-20 -11.5v-508z" />
<glyph unicode=":" horiz-adv-x="583" d="M98 45q90 154 197 209q23 -29 89.5 -80t102.5 -74q-78 -55 -124 -101t-76 -110q-14 18 -49 47t-84.5 67t-55.5 42zM98 723q90 154 197 209q23 -29 89.5 -80t102.5 -74q-78 -55 -124 -101t-76 -110q-14 18 -49 47t-84.5 67t-55.5 42z" />
<glyph unicode=";" horiz-adv-x="546" d="M80 723q90 154 196 209q23 -29 89.5 -80t103.5 -74q-78 -55 -124 -101t-77 -110q-14 18 -49 47t-84 67t-55 42zM117 92q45 37 67.5 81t42.5 122q68 0 130.5 -54.5t68.5 -158.5q-25 -72 -44.5 -116t-57 -111.5t-90 -109.5t-117.5 -56q51 96 51 217q0 114 -51 186z" />
<glyph unicode="&#x3c;" horiz-adv-x="950" d="M88 588v266l729 262v-209l-495 -186l495 -191v-208z" />
<glyph unicode="=" horiz-adv-x="1050" d="M139 205v282q76 -37 232 -36h309q156 0 231 36v-282q-96 35 -229 35h-313q-133 0 -230 -35zM139 614v283q76 -37 232 -37h309q156 0 231 37v-283q-96 35 -229 35h-313q-133 0 -230 -35z" />
<glyph unicode="&#x3e;" horiz-adv-x="950" d="M133 322v208l496 191l-496 186v209l729 -262v-266z" />
<glyph unicode="?" horiz-adv-x="1032" d="M47 1526q80 -33 152 -33q131 0 233 121q74 -47 230.5 -88t275.5 -43q-20 -33 -20 -609l-318 -208q0 -176 35 -275h-328q33 70 33 137q0 132 -33 224l316 188l6 434q-39 -39 -134.5 -62.5t-158.5 -23.5q-86 0 -164 61.5t-125 176.5zM272 45q90 154 197 209 q23 -29 89.5 -80t103.5 -74q-78 -55 -124 -101t-77 -110q-14 18 -49 47t-84.5 67t-55.5 42z" />
<glyph unicode="@" horiz-adv-x="1488" d="M104 483q0 115 36 225.5t110 211t207 163t305 62.5q303 0 477 -170t174 -395q0 -172 -117 -330q-74 -2 -130 -43t-74 -107q-127 0 -215 189l-80 -170q-162 96 -383 98q29 78 28 297q0 207 -26 274q80 18 147 19q135 0 301 -53v20l21 17h245v-27q-14 -2 -17 -37t-3 -139 q0 -195 6 -246q33 31 88 37q43 82 43 149q0 203 -124 334t-361 131q-469 0 -469 -516q0 -238 132 -364.5t366 -126.5q174 0 180 53l22 4q37 -119 113 -195q-229 -29 -295 -28q-324 0 -515.5 188.5t-191.5 474.5zM674 369q123 -8 192 -25v289q-133 45 -188 45z" />
<glyph unicode="A" d="M-35 -61q78 14 165 162.5t146 353.5l66 229q-176 184 -307 184q-10 0 -35 -2l-2 6q90 45 164 46q88 0 227 -78l111 379q18 61 18 104t-26.5 61.5t-90.5 18.5q-72 0 -200 -25q27 39 180.5 91.5t284.5 52.5t176 -56q68 4 158 29t114 41q-55 -78 -55 -219q0 -158 60.5 -336 t105.5 -209q0 -236 148.5 -507.5t314.5 -373.5l-2 -6q-297 109 -455 203q-53 -53 -91 -75.5t-108 -41.5q37 45 37 131q0 76 -43 211l-49 156q-121 -162 -219 -352q-20 29 -95 144.5t-128 189.5l-33 -107q-27 -86 -27 -166q0 -137 70 -239q-23 8 -41.5 16t-35.5 18.5 t-28.5 17.5t-29 21.5t-24.5 21.5t-29.5 26.5t-32.5 29.5q-154 -150 -359 -151zM596 645q56 -59 160 -192q18 23 74.5 96.5t84.5 112.5l-157 512z" />
<glyph unicode="B" horiz-adv-x="1394" d="M59 1479q160 -27 252 -27q193 0 340 119q43 -45 210 -106.5t302 -61.5q61 0 111 8q-41 -145 -88 -174q-4 -49 -4 -78q0 -121 37 -244q-29 -12 -133.5 -68t-172.5 -83q158 -31 277 -31q47 0 88 6l6 -10q-51 -125 -51 -274q0 -240 88 -385q-113 -18 -189.5 -36t-205.5 -76 t-211 -142q-229 203 -639 243l-4 9q88 29 137 138t49 220q0 70 -16.5 157t-36.5 126q61 115 61 284q0 131 -37 256q-154 47 -170 230zM526 412q0 -113 17 -222q133 -39 207 -94q102 74 227 121q-17 95 -25 326q-236 76 -413 104q-12 -111 -13 -235zM543 1071q0 -174 4 -262 q244 53 395 182q-4 66 -4 131q0 43 8 92q-245 4 -399 80q-4 -147 -4 -223z" />
<glyph unicode="C" horiz-adv-x="1277" d="M80 1524q231 -25 471 -25q174 0 361.5 14.5t215.5 14.5q27 0 52 -4q-20 -41 -47 -219.5t-39 -290.5l-15 -6q-70 51 -101.5 113.5t-49.5 162.5q-47 35 -180 35q-39 0 -102.5 -2t-78.5 -2q-41 -223 -41 -676q0 -289 15 -446l346 -35q18 80 62 158.5t85 130t111 126.5l12 -4 q-10 -80 -10 -182q0 -213 35 -321q-162 -18 -322 -154q-342 102 -643 102q-62 0 -121 -20l-2 6q57 35 93 178.5t36 274.5q0 213 -73 303q108 105 108 448v6q0 61 -6 136q-47 20 -98.5 71t-73.5 107z" />
<glyph unicode="D" horiz-adv-x="1437" d="M31 1509q25 0 72 1t69 1q461 0 690 35q150 -90 359 -147q6 -94 18 -169t25.5 -119t42 -136t49.5 -168q-37 -76 -60.5 -224.5t-23.5 -256.5q0 -88 16 -146q-109 -20 -195.5 -92t-185.5 -199q-299 131 -850 131q53 27 129 129.5t76 176.5q0 287 -74 387q70 74 70 428 q0 129 -43 196.5t-184 171.5zM528 778q0 -291 23 -573q96 -29 260 -58q59 95 180 148q2 117 25.5 287t58.5 229q-94 281 -123 494q-256 -6 -415 -60q-8 -242 -9 -467z" />
<glyph unicode="E" horiz-adv-x="1275" d="M80 1524q231 -25 471 -25q174 0 361.5 14.5t215.5 14.5q27 0 52 -4q-20 -37 -48 -193.5t-38 -255.5l-15 -6q-68 37 -100.5 87t-50.5 128q-47 35 -180 35q-39 0 -102.5 -2t-78.5 -2q-31 -156 -37 -438q55 -6 105 -7q80 0 166 121q6 -14 26.5 -70.5t40 -95.5t45.5 -57 q-55 -57 -120 -233q-79 151 -149 151h-1q-68 0 -117 -10v-37q0 -289 15 -446l346 -35q18 80 62 158.5t85 130t111 126.5l12 -4q-10 -80 -10 -182q0 -213 35 -321q-162 -18 -322 -154q-342 102 -643 102q-62 0 -121 -20l-2 6q57 35 93 178.5t36 274.5q0 213 -73 303 q108 105 108 448v6q0 61 -6 136q-47 20 -98.5 71t-73.5 107z" />
<glyph unicode="F" horiz-adv-x="1343" d="M-37 1333q158 61 285 221q182 -61 280.5 -77.5t247.5 -16.5q-37 61 -39 121q225 -145 518 -145q66 0 134 10q-102 -90 -267.5 -156.5t-302.5 -66.5q-86 0 -209 8q-6 -41 -6 -131v-236q47 -8 92 -8q70 0 193 70q219 -150 250 -166q-37 -23 -248 -170q-100 65 -183 65h-3 q-47 0 -99 -14q2 -78 2 -246q0 -111 40 -212t108 -144q-55 -27 -98.5 -60.5t-66 -60.5t-61.5 -78q-72 119 -288 199q82 119 82 346q0 236 -91 330q96 133 97 444q0 39 -4 117q-211 61 -260 61q-46 0 -101 -10z" />
<glyph unicode="G" horiz-adv-x="1333" d="M66 1524q231 -25 471 -25q174 0 371.5 14.5t226.5 14.5q27 0 51 -4q-23 -47 -54.5 -264.5t-31.5 -264.5q-78 53 -112 117t-54 172q-47 35 -221 35q-41 0 -92.5 -2t-67.5 -2q-31 -84 -31 -459q0 -119 3 -354.5t3 -325.5q35 -8 82 -20.5t66.5 -16.5t56.5 -11t78 -10t102 -7 q6 31 7 196q0 131 -7 240q-27 0 -89 16.5t-158 22.5q59 111 79 178q164 -33 295 -33q150 0 224 41q0 -2 -47.5 -98t-47.5 -135q29 -451 39 -473q-98 -23 -183 -71t-200 -145q-106 66 -241 114t-297 90t-205 57q61 16 94 114.5t33 227.5q0 213 -74 303q109 106 109 454 q0 61 -6 136q-47 20 -98.5 71t-73.5 107z" />
<glyph unicode="H" horiz-adv-x="1540" d="M37 1516q162 -35 299 -35h4q67 0 285 32q-57 -51 -85 -169.5t-28 -243.5v-260q90 -10 293 -11q104 0 209 9v295q0 195 -70 360q74 -12 154 -12q113 0 362 32q-106 -63 -143 -270q-10 -51 -10 -172q0 -242 100 -315q-96 -180 -96 -361q0 -127 21.5 -211t84.5 -125 q-59 -23 -106 -59.5t-69.5 -64t-51.5 -74.5q-18 53 -91 112.5t-157 85.5q33 35 50.5 113t19.5 140.5t2 181.5v86q-117 12 -197 12q-166 0 -301 -17v-108q0 -299 129 -479q-161 25 -288 25q-3 -1 -5 -1q-129 0 -295 -22q111 66 185 270q16 49 16 127q0 240 -102 369 q100 186 100 377q0 58 -6 122q-25 6 -39 15q-152 63 -174 246z" />
<glyph unicode="I" horiz-adv-x="811" d="M84 -10q86 51 143.5 165.5t57.5 231.5q0 240 -103 369q94 176 94 377q0 58 -6 122q-127 51 -145 261q127 -35 237 -35h5q81 0 335 32q-78 -51 -115.5 -169.5t-37.5 -243.5q0 -215 59 -344q-55 -94 -55 -289q0 -145 36 -260t134 -219q-189 24 -333 24h-11q-129 0 -295 -22 z" />
<glyph unicode="J" horiz-adv-x="782" d="M-125 -418q80 31 203 151t186 234q10 170 10 209q0 385 -81 457q81 127 81 407v7q0 66 -5 167t-5 132q-27 0 -89 16t-159 22q29 51 80 117q10 12 80 12q47 0 193.5 -8t197.5 -8q70 0 88 12q-4 -12 -49 -73.5t-45 -98.5t-4 -132t-4 -156q0 -289 74 -416q-59 -147 -60 -440 q0 -238 54 -271v-10q-111 -61 -316.5 -201.5t-320.5 -234.5z" />
<glyph unicode="K" horiz-adv-x="1421" d="M80 -10q86 51 140 164.5t54 232.5q0 240 -102 369q100 186 100 377q0 84 -6 149q-78 23 -114.5 74t-51.5 166q8 -2 41 -12.5t41 -12.5t35 -8t44.5 -7t45 -3t60.5 -2q119 0 256 22q-66 -113 -81.5 -243t-21.5 -521q51 29 109.5 69t106.5 79t87 72.5t63.5 56t26.5 24.5 q0 16 6.5 87t6.5 118q0 180 -74 250q74 -37 190 -37q35 0 113 38t145 38h23q-115 -117 -115 -352q0 -131 41 -234q-43 -14 -223 -119q29 -29 68 -56.5t105.5 -68.5t74.5 -47q-20 -51 -21 -204q0 -285 84 -369q-86 -59 -130 -115.5t-74 -144.5q-39 164 -234 260 q29 31 37 96.5t14 259.5q2 78 4 125q-25 14 -151 127l-268 -168q16 -324 65 -540q-94 47 -176 47q-43 0 -138.5 -19.5t-160.5 -19.5q-31 0 -45 2z" />
<glyph unicode="L" horiz-adv-x="1095" d="M47 1475q68 -8 146 -9q119 0 283.5 27t234.5 27q43 0 88 -7q-98 -2 -178 -136t-80 -277v-518q0 -133 19.5 -236.5t47.5 -132.5q-119 -47 -151 -109q27 -80 213 -222t309 -177q-37 49 -94 162q188 -115 321 -160t273 -45q61 0 149 10l8 -26q-236 -119 -536 -119 q-125 0 -233.5 41t-186.5 98.5t-147.5 114.5t-146.5 98t-155 41q-66 0 -133 -12q160 186 160 514q0 238 -108 334q100 186 100 377q0 63 -6 108t-12.5 71.5t-30 51.5t-36.5 35t-54 34.5t-64 41.5z" />
<glyph unicode="M" horiz-adv-x="1863" d="M-33 -215q129 123 212 299t83 352q0 182 -92 320q100 193 100 344q0 242 -256 424q23 6 47 6q41 0 202 -28.5t290 -28.5q53 0 80 2q-35 -29 -61.5 -87.5t-26.5 -107.5l407 -702l340 690q-47 135 -139 213q29 -4 88 -4q209 0 547 61q-113 -80 -152 -185.5t-39 -252.5 q0 -145 105 -344q-96 -180 -96 -361q0 -109 38.5 -201t108.5 -135q-88 -45 -166 -115.5t-108 -133.5q-18 63 -98.5 140t-166.5 109q61 51 79 159t18 276v387l-398 -760l-34 6l-387 680v-313q0 -242 32.5 -356.5t118.5 -215.5q-92 25 -145.5 53.5t-143.5 102.5 q-61 -104 -148 -175t-239 -118z" />
<glyph unicode="N" horiz-adv-x="1572" d="M-23 -215q129 123 212 299t83 352q0 182 -92 320q100 193 101 344q0 242 -256 424q23 6 47 6q41 0 209 -28.5t290 -28.5q53 0 80 2q-111 -43 -127 -152q248 -616 504 -995l41 -62q-2 63 -9 147.5t-7 112.5q0 117 -1 241t-3 216t-4.5 166t-3.5 115t-1 39q-10 127 -129 172 q27 -2 80 -2q139 0 309 28.5t213 28.5q27 0 48 -6q-256 -182 -256 -424q0 -152 100 -344q-106 -264 -107 -531q0 -156 25 -286q76 -82 143.5 -126t99 -51.5t93.5 -15.5l-53 135q170 -94 307 -143t303 -49q141 0 268 18q-344 -135 -639 -135q-150 0 -289 39t-250.5 102.5 t-218 157.5t-186.5 189.5t-156.5 214t-129 217t-105.5 210.5v-208q0 -242 32.5 -356.5t119.5 -215.5q-92 25 -145.5 53.5t-143.5 102.5q-115 -201 -396 -293z" />
<glyph unicode="O" horiz-adv-x="1415" d="M84 1434q129 10 291 48t266 85q96 -12 342 -79t285 -71q-53 -88 -54 -264q0 -119 30 -232.5t81 -181.5q-51 -63 -84 -174.5t-33 -224.5q0 -221 123 -299q-131 -10 -296 -48t-269 -85q-96 12 -338 78.5t-281 70.5q51 49 52 226q0 152 -35 298t-78 160q53 59 87 169t34 223 q0 229 -123 301zM453 618q0 -61 1 -197.5t1 -189.5q152 -86 282 -108q49 25 96.5 42t75 25.5t33.5 12.5q10 543 10 700q0 225 -4 330q-59 35 -90 50t-80 31.5t-110 26.5q-49 -25 -97.5 -44t-75 -28t-34.5 -14q-8 -180 -8 -637z" />
<glyph unicode="P" horiz-adv-x="1417" d="M66 1475q145 -23 237 -23q186 0 397 123q53 -45 258 -106.5t369 -61.5q59 0 111 8q-76 -164 -176 -223q-20 -147 -21 -252q0 -150 66 -283q-125 -33 -195.5 -83t-138.5 -140q-113 41 -434 45v-84q0 -109 38.5 -201t108.5 -135q-80 -55 -130 -118.5t-103 -161.5 q-35 80 -115 156.5t-174 123.5q82 119 82 326q0 236 -90 330q98 139 98 403q0 41 -4 115q-168 51 -184 242zM535 1034q0 -215 2 -317q53 4 94 4q227 0 293 -43q22 47 63 72q-2 43 -6 216t-6 214q-104 18 -265 65t-173 51q-2 -90 -2 -262z" />
<glyph unicode="Q" horiz-adv-x="1415" d="M84 1434q129 10 291 48t266 85q96 -12 342 -79t285 -71q-53 -88 -54 -264q0 -119 30 -232.5t81 -181.5q-51 -63 -84 -174.5t-33 -224.5q0 -221 123 -299q-240 -16 -485 -100q51 -113 106 -166q33 20 80 71q61 -236 203 -350q-459 135 -688 459q-51 14 -154.5 42t-161 43 t-84.5 17q51 49 52 226q0 152 -35 298t-78 160q53 59 87 169t34 223q0 229 -123 301zM453 618q0 -61 1 -197.5t1 -189.5q152 -86 282 -108q49 25 96.5 42t75 25.5t33.5 12.5q10 543 10 700q0 225 -4 330q-59 35 -90 50t-80 31.5t-110 26.5q-49 -25 -97.5 -44t-75 -28 t-34.5 -14q-8 -180 -8 -637z" />
<glyph unicode="R" horiz-adv-x="1441" d="M80 -10q86 51 143.5 165.5t57.5 231.5q0 240 -103 369q98 184 98 391q0 57 -6 121q-178 27 -178 227q150 -33 254 -33q195 0 359 127q53 -45 259.5 -105.5t370.5 -60.5q59 0 111 9q-20 -47 -87 -97.5t-147 -81.5q-6 -28 -6 -61q0 -160 43 -268q-43 -14 -190 -99 q137 -123 215 -172q-20 -51 -21 -204q0 -285 84 -369q-127 -86 -211 -322q-23 94 -82 186.5t-145 135.5q29 31 37 96.5t14 259.5q2 78 4 125q-43 27 -153 117q-223 -133 -266 -160q16 -330 65 -538q-94 47 -176 47q-43 0 -138.5 -19.5t-160.5 -19.5q-31 0 -45 2zM524 778 q76 45 176.5 103.5t163 94.5t66.5 40l-10 252q-307 43 -392 63q-4 -111 -4 -391v-162z" />
<glyph unicode="S" horiz-adv-x="1208" d="M76 90q102 119 102 244q0 47 -10 86q35 0 107.5 -37t203.5 -108.5t236 -120.5q41 113 41 317q0 188 -43 244q-246 -16 -543 -90q33 225 33 387q0 272 -111 420q8 0 31.5 -4.5t54.5 -7.5t62 -3q233 0 338 180q188 -124 402 -124h3q57 0 156 24q-41 -111 -113 -183.5 t-152 -72.5q-59 0 -173.5 35t-180.5 78q-61 -117 -61 -271q0 -109 30 -237q92 29 203 39t365 20q-18 -244 -19 -413q0 -266 45 -445q-106 0 -204.5 -33.5t-159.5 -91.5q-240 147 -643 168z" />
<glyph unicode="T" horiz-adv-x="1357" d="M-53 1391q104 31 172.5 74.5t150.5 117.5q205 -61 314.5 -77.5t275.5 -16.5q-37 61 -39 121q84 -53 167 -81t137.5 -32t150.5 -4q43 0 117 8l4 -8q-248 -213 -496 -213q-57 0 -84 2q-6 -61 -6 -125q0 -113 2 -350.5t2 -374.5q0 -111 40 -209t108 -141q-92 -43 -147.5 -90 t-100.5 -129q-57 135 -275 219q82 119 82 340q0 168 3 387t3 408q0 68 -4 102q-47 8 -129 24.5t-131 25.5t-110.5 17.5t-108.5 8.5q-20 0 -96 -11z" />
<glyph unicode="U" horiz-adv-x="1452" d="M106 1493q74 -6 113 -11t87 -18.5t71.5 -33t50.5 -53.5t42 -83t30 -118q0 -170 -18.5 -464t-22.5 -390l155 -191q119 74 279 80q35 96 35 534q0 262 2 416q-6 147 -19 318q123 -39 238 -39q100 0 248 39q-23 -223 -201 -265q-4 -40 -4 -118q0 -129 35 -250t69 -144 q-118 -118 -118 -400q0 -58 4 -99q27 -6 59 -19q125 -63 141 -245q-212 65 -380 65h-5q-186 0 -329.5 -31.5t-206.5 -70.5q-27 55 -94.5 120.5t-192.5 167.5q8 49 8 138q0 143 -18.5 253.5t-48.5 133.5q104 133 104 391q0 227 -113 387z" />
<glyph unicode="V" horiz-adv-x="1574" d="M-39 1526q117 0 190.5 -17.5t98 -35t55.5 -52.5q25 25 45.5 40.5t33.5 25.5t33.5 16t29 8t37 7.5t42.5 7.5q-57 -80 -57 -162q0 -12 4 -37l260 -1087l76 -80l74 78l213 1089q2 12 2 37q0 57 -76 162q100 -51 278 -51q59 0 164 25.5t183 25.5q-20 -10 -57.5 -35t-94.5 -83 t-104.5 -130t-82 -186.5t-34.5 -241.5q0 -59 24 -141q-78 -74 -116.5 -241t-38.5 -292q0 -6 1 -16t1 -15q-180 -113 -334 -299q-143 164 -360 289q2 4 2 23q0 111 -76 434t-198 628.5t-218 305.5z" />
<glyph unicode="W" horiz-adv-x="1914" d="M-10 1502q158 0 222 -25t112 -80q25 25 45 40t33.5 25.5t34 16.5t28.5 8t36.5 7t43.5 8q-55 -76 -56 -163q0 -25 3 -36l71 -1067l76 -80l164 282v381q0 201 -14.5 262.5t-73.5 135.5q160 104 213 321q80 -225 221 -321q-33 -35 -49.5 -62t-28.5 -91.5t-12 -168.5v-459 l178 -280l74 77l78 1070q4 29 4 47q0 123 -78 152q98 -31 268 -32q59 0 168 15.5t188 16.5q-119 -8 -202.5 -164t-83.5 -343q0 -143 63 -258q-110 -151 -110 -333q0 -134 28 -283q-305 -190 -395 -299q-82 92 -179 232.5t-134 209.5q-8 -12 -75 -120.5t-122 -194.5t-88 -127 q-35 39 -74 73.5t-91 68.5t-80.5 52.5t-91 53t-75.5 41.5q23 121 23 237q0 217 -28.5 473t-91 467.5t-142.5 213.5z" />
<glyph unicode="X" horiz-adv-x="1417" d="M-63 1516q371 -2 442 -84q41 78 221 84q-57 -76 -57 -136q0 -55 14 -86l174 -374l170 383q55 111 55 131q0 41 -49 69q84 -16 230 -16q45 0 149.5 7t163.5 11q-154 -27 -260 -217l-297 -534l346 -541q47 -74 116.5 -134.5t137.5 -78.5q-371 2 -442 84q-41 -78 -222 -84 q68 94 68 152q0 27 -10 45l-185 364l-219 -455q-16 -37 -20 -71q0 -27 16 -47q-111 18 -166 18q-35 0 -83 -3t-122.5 -8t-132.5 -7q31 8 85.5 44t76.5 70l404 641l-351 560q-45 74 -115.5 133t-137.5 80z" />
<glyph unicode="Y" horiz-adv-x="1550" d="M-35 1507q178 -2 241.5 -23.5t110.5 -72.5q53 96 244 105q-59 -82 -59 -162q0 -12 4 -37l217 -508l78 -80l76 78l208 510q2 12 2 37q0 61 -77 162q102 -51 270 -52q51 0 145.5 26t178.5 26q-158 -96 -321 -383t-165 -424q-37 -23 -68.5 -59t-69.5 -90t-54 -75 q4 -125 35.5 -253t76.5 -177q-96 -66 -150 -122t-85 -138q-35 143 -273 260q100 150 109 428q-12 12 -54 58.5t-61.5 66t-52.5 47t-61 43.5q0 193 -137.5 448t-307.5 361z" />
<glyph unicode="Z" horiz-adv-x="1386" d="M-33 -41l324 428q154 205 155 293q0 49 -45 100q113 25 223.5 131.5t229.5 345.5q-14 -2 -39 -2q-156 0 -375 36t-301 36q-45 0 -65 -4l-6 10q207 68 327 191q274 -37 463 -37q219 0 528 41q-279 -371 -381 -526.5t-102 -219.5q0 -49 64 -80q-6 0 -14.5 2t-12.5 1 q-55 0 -108.5 -38t-85 -77t-89.5 -121l-204 -291q174 -59 321 -59q-41 57 -41 123q219 -74 379 -84q143 0 268 20q-209 -250 -690 -250q-125 0 -267 23.5t-161 25.5q-160 0 -295 -18z" />
<glyph unicode="[" horiz-adv-x="765" d="M147 -219q35 96 35 229v1374q0 133 -35 230h572v-174h-322v-1475h322v-184h-572z" />
<glyph unicode="\" horiz-adv-x="1212" d="M33 1501h315q0 -78 82 -229l559 -1045q97 -178 187 -227h-316q0 78 -82 229l-559 1045q-96 178 -186 227z" />
<glyph unicode="]" horiz-adv-x="765" d="M47 -35h322v1475h-322v174h571q-35 -96 -34 -230v-1374q0 -133 34 -229h-571v184z" />
<glyph unicode="^" horiz-adv-x="940" d="M59 1108q20 23 188.5 191.5t221.5 240.5q68 -84 163 -182t167 -168t82 -82q-23 -18 -59 -54t-56 -53q-283 270 -295 283q-100 -86 -297 -283q-20 16 -56 52.5t-59 54.5z" />
<glyph unicode="_" horiz-adv-x="1230" d="M117 -115q76 -37 231 -37h535q156 0 231 37v-282q-96 35 -229 35h-539q-133 0 -229 -35v282z" />
<glyph unicode="`" horiz-adv-x="430" d="M18 1440q37 23 103.5 74t89.5 79q54 -104 199 -329q-23 -18 -49.5 -44t-45.5 -42q-193 193 -297 262z" />
<glyph unicode="a" horiz-adv-x="978" d="M68 41q28 75 28 283v14q0 104 -26 172q46 -6 98 -6q117 0 233.5 20.5t178.5 53.5v202q-160 -71 -268 -71h-3q-76 0 -123 41t-73 155q6 0 17 -1t30 -1q264 0 420 88q133 -145 317 -145q-31 -49 -41 -123t-10 -229q0 -188 18.5 -246t75.5 -70v-22q-53 -20 -121.5 -91 t-93.5 -122q-84 55 -133 170l-141 -170q-162 96 -383 98zM369 193q152 -10 213 -25v289q-117 -48 -209 -58z" />
<glyph unicode="b" horiz-adv-x="1087" d="M70 -27q61 113 61 557v709q0 109 -12.5 173.5t-48.5 129.5q43 -14 96 -14q125 0 303 86q-72 -84 -72 -320v-473q172 123 389 172q94 -102 224 -139q-31 -113 -31 -317q0 -352 35 -424q-219 -39 -418 -174q-222 67 -323 67h-3q-117 0 -200 -33zM379 182q90 -4 211 -41 q63 63 121 92q-6 59 -6 269q0 129 10 252q-80 -2 -175.5 -31t-142.5 -59v-123q0 -272 -18 -359z" />
<glyph unicode="c" horiz-adv-x="917" d="M61 68q61 96 62 405q0 236 -45 377q227 39 444 141q137 -88 340 -125q-39 -78 -107.5 -126t-140.5 -48q-106 0 -241 125q20 -170 20 -309q0 -154 -20 -293q106 -45 243 -55q12 78 65.5 136t137.5 83q-2 -23 -2 -115q0 -117 25 -207q-66 -12 -144.5 -49.5t-109.5 -70.5 q-72 47 -239 88t-288 43z" />
<glyph unicode="d" horiz-adv-x="1093" d="M76 829q166 29 377 175q121 -49 237 -62v297q0 109 -12 173.5t-49 129.5q43 -14 96 -14q125 0 303 86q-72 -84 -72 -320v-751q0 -152 9.5 -225.5t27 -101.5t56.5 -38v-22q-53 -20 -122 -91t-93 -122q-84 55 -134 170q-152 -109 -397 -164q-94 102 -223 139q31 113 31 318 q0 352 -35 423zM375 188q78 2 173 31t142 60v481q-66 4 -170 41q-72 -61 -141 -92q6 -59 6 -269q0 -129 -10 -252z" />
<glyph unicode="e" horiz-adv-x="944" d="M59 68q61 98 62 403q0 188 -45 338q147 29 305 182q176 -37 450 -43q-6 -37 -6 -92q0 -225 54 -364q-203 -14 -506 -66q-2 -59 -19 -217q96 -37 297 -53q12 70 53 112.5t134 69.5q-2 -33 -2 -94q0 -121 24 -189q-86 -10 -205 -46t-172 -75q-72 53 -207 92.5t-217 41.5z M352 807q18 -150 23 -272l239 59q-24 90 -24 172v6q-109 0 -238 35z" />
<glyph unicode="f" horiz-adv-x="753" d="M31 803v22q86 33 170 107v86q0 197 -6.5 259t-34.5 120q98 25 213.5 78t185.5 112q131 -70 383 -125q-63 -182 -180 -182q-92 0 -281 121l-41 -27q27 -96 27 -397v-45h289v-8q-63 -68 -94 -162l-195 26v-516q0 -129 26.5 -179t100.5 -68v-25q-135 -2 -254 -57 q-98 53 -256 57v25q63 14 90 70.5t27 209.5v498h-170z" />
<glyph unicode="g" horiz-adv-x="1089" d="M37 -362q35 178 135 272q47 -4 176 -72.5t211 -132.5l154 49q-14 86 -21 400q-78 -57 -186.5 -104.5t-202.5 -67.5q-98 102 -223 139q31 98 31 315q0 313 -35 385q219 39 418 174q221 -68 324 -68q1 0 2 1q102 0 200 33q-62 -116 -62 -558v-354q0 -260 19 -346 q-115 0 -261.5 -65.5t-250.5 -163.5q-223 164 -428 164zM375 221q74 4 171 31t146 59v82q0 258 19 359q-109 4 -211 41q-53 -53 -121 -93q6 -57 6 -223t-10 -256z" />
<glyph unicode="h" horiz-adv-x="1073" d="M80 1542q43 -14 96 -14q125 0 303 86q-71 -83 -71 -314v-6v-553q162 104 301 250q80 -72 131 -109.5t129 -74.5q-29 -102 -29 -440q0 -264 18 -349q-155 -57 -311 -221l-12 13q20 74 36.5 212t16.5 195q0 78 -1 233.5t-1 233.5l-27 29l-251 -113v-420q0 -127 55 -149v-31 h-377v31q55 20 55 131v1077q0 109 -12 173.5t-49 129.5z" />
<glyph unicode="i" horiz-adv-x="542" d="M63 909v23q165 24 306 61l37 -61v-752q0 -127 55 -149v-31q-113 -18 -242 -57h-10q-70 96 -70 221v713zM82 1331q90 154 197 209q23 -29 89 -80t103 -74q-78 -55 -124 -101t-77 -109q-14 18 -49 46.5t-84 66.5t-55 42z" />
<glyph unicode="j" horiz-adv-x="544" d="M-57 -535q150 213 198 429v983l-75 32v23q164 25 305 61l37 -61v-772q0 -195 9 -269.5t44 -111.5v-8q-88 -29 -213 -124.5t-234 -226.5zM84 1331q90 154 197 209q23 -29 89 -80t103 -74q-78 -55 -124 -101t-77 -109q-14 18 -49 46.5t-84 66.5t-55 42z" />
<glyph unicode="k" horiz-adv-x="1026" d="M80 1542q41 -14 96 -14q125 0 303 86q-71 -85 -71 -314v-6v-426q74 47 182 156q117 -76 330 -119q-18 -57 -19 -143q0 -78 8 -109l-303 -114v-9q182 -37 342 -129q-14 -80 -14 -186q0 -113 14 -182q-84 -35 -175 -93.5t-138 -105.5l-17 6q49 133 50 320v170 q-115 80 -260 139v-289q0 -127 55 -149v-31h-377v31q55 20 55 131v1077q0 111 -13 174.5t-48 128.5zM408 555l313 127l-4 68l-309 61v-256z" />
<glyph unicode="l" horiz-adv-x="555" d="M37 -43q106 51 106 231v1051q0 109 -12 173.5t-49 129.5q43 -14 96 -14q125 0 303 86q-71 -83 -71 -314v-6v-991q0 -162 25.5 -232.5t117.5 -183.5l-12 -18q-39 18 -89.5 40.5t-67.5 31t-39.5 24t-43.5 35.5q-137 -57 -262 -57z" />
<glyph unicode="m" horiz-adv-x="1554" d="M68 909v23q164 25 305 61l37 -61v-168q156 111 276 248q80 -72 131 -110t129 -75l-12 -55q154 113 264 240q80 -72 131 -110t129 -75q-28 -99 -28 -418v-22q0 -264 18 -348q-155 -57 -311 -221l-13 12q20 74 37 212t17 196q0 78 -1 233.5t-1 233.5l-27 28l-229 -98 q-2 -59 -2 -268v-187q0 -127 55 -149v-31h-365v31q55 20 56 131v543l-27 28l-227 -98v-455q0 -127 55 -149v-31h-377v31q55 20 55 131v715z" />
<glyph unicode="n" horiz-adv-x="1069" d="M66 909v23q164 25 305 61l37 -61v-170q162 104 301 250q80 -72 131 -110t129 -75q-29 -102 -29 -440q0 -264 18 -348q-156 -57 -311 -221l-12 12q20 74 36.5 212t16.5 196q0 78 -1 233.5t-1 233.5l-27 28l-251 -112v-441q0 -127 55 -149v-31h-377v31q55 20 55 131v715z " />
<glyph unicode="o" horiz-adv-x="1046" d="M61 49q55 49 56 287q0 119 -15.5 263t-31.5 165q169 28 368 227q246 -80 410 -80q72 0 115 7q-25 -131 -25 -314q0 -221 37 -430q-100 -12 -223 -77.5t-207 -153.5q-45 35 -197.5 72.5t-241.5 37.5q-20 0 -45 -4zM362 803q18 -172 19 -311q0 -121 -10 -281 q176 -20 309 -59l4 579q-221 18 -322 72z" />
<glyph unicode="p" horiz-adv-x="1095" d="M49 766v22q53 20 122 91t93 122q84 -55 133 -170q152 109 398 164q94 -102 223 -139q-31 -113 -31 -317q0 -352 35 -424q-166 -29 -377 -174q-119 49 -237 61v-207q0 -109 12 -173t49 -130q-43 14 -96 14q-125 0 -303 -86q71 83 71 314v6v661q0 152 -9 225.5t-26.5 101.5 t-56.5 38zM408 184q66 -4 170 -41q72 61 141 93q-6 59 -6 268q0 129 10 252q-78 -2 -173 -31t-142 -59v-482z" />
<glyph unicode="q" horiz-adv-x="1091" d="M74 821q219 39 418 174q222 -67 322 -67h3q117 0 201 33q-62 -114 -62 -558v-608q0 -109 12.5 -173t49.5 -130q-43 14 -96 14q-125 0 -304 -86q72 84 72 320v373q-172 -123 -389 -172q-94 102 -223 139q31 113 31 317q0 352 -35 424zM373 180q80 2 175 31t142 59v123 q0 272 19 359q-90 4 -211 41q-63 -63 -121 -93q6 -59 6 -268q0 -129 -10 -252z" />
<glyph unicode="r" horiz-adv-x="849" d="M68 909v23q164 25 305 61l37 -61v-275q94 152 163 338q82 -51 269 -96q-18 -176 -105 -274l-137 71h-25l-165 -233v-283q0 -72 26.5 -104.5t89.5 -40.5v-35h-438v31q55 20 55 131v715z" />
<glyph unicode="s" horiz-adv-x="942" d="M47 35q6 143 80 237q90 0 414 -143q24 124 24 225v8q0 66 -2 84q-193 -16 -432 -79q12 139 12 223q0 176 -39 291q141 2 394 110q125 -66 385 -84q-37 -88 -84 -128t-117 -40q-61 0 -148.5 25.5t-144.5 60.5q-6 -63 -6 -135q0 -98 8 -155q139 47 447 69q-6 -70 -7 -209 q0 -252 19 -346q-125 0 -253 -31.5t-198 -78.5q-47 47 -123.5 67.5t-228.5 28.5z" />
<glyph unicode="t" horiz-adv-x="712" d="M12 803v22q86 33 170 107v65q0 47 -10 133.5t-25 104.5q135 10 336 115q-14 -35 -24 -146.5t-10 -163.5v-108h288v-8q-69 -74 -94 -162l-194 24v-452q0 -102 50 -157.5t132 -59.5v-29q-68 -23 -150 -67t-121 -78q-109 66 -178 98v762h-170z" />
<glyph unicode="u" horiz-adv-x="1085" d="M35 885l2 22q86 10 202.5 37t170.5 49q-14 -106 -15 -288v-414l86 -66l197 86v320q0 143 -16.5 187t-75.5 61v26q209 14 358 86v-483q0 -190 17.5 -255t74.5 -75v-22q-53 -23 -122.5 -92.5t-92.5 -120.5q-68 57 -98.5 106t-38.5 121q-211 -109 -326 -227 q-137 119 -260 184q14 23 27.5 159t13.5 269q0 152 -22.5 221.5t-81.5 108.5z" />
<glyph unicode="v" horiz-adv-x="1013" d="M16 848v35q78 10 186.5 44t145.5 64q88 -127 88 -620q0 -117 -2 -178l103 -56h12q53 92 86 270.5t33 309.5q0 147 -70 180l2 33q166 12 324 61q-4 -14 -4 -61q0 -133 45 -185l-199 -606l-254 -196h-20q-127 94 -330 143q10 82 10 242q0 350 -96 508z" />
<glyph unicode="w" horiz-adv-x="1490" d="M16 848v35q88 10 191.5 45t138.5 63q68 -90 86 -620l6 -178l105 -56h12l86 88q10 53 10 172q0 319 -39 439l-59 12v35q88 10 191.5 45t138.5 63q28 -113 28 -364v-17q0 -299 -12 -397l119 -92h12q43 78 78 256t35 328q0 86 -15.5 129t-54.5 63l2 33q174 12 324 61 q-4 -8 -4 -61q0 -139 45 -185l-180 -608l-236 -194h-20q-74 45 -297 174h-15l-174 -174h-20q-123 86 -340 143q12 53 12 205q0 383 -94 545z" />
<glyph unicode="x" horiz-adv-x="989" d="M41 879l258 112l270 -399l88 57q0 258 -49 336l17 6q100 -29 272 -55q-6 -70 -6 -117q0 -23 4 -121l-266 -190l346 -477l-289 -90l-274 411l-95 -67q0 -258 50 -336l-17 -6q-190 45 -272 57q12 68 12 121q0 31 -12 153l268 172z" />
<glyph unicode="y" horiz-adv-x="1089" d="M27 -362q35 178 135 272q47 -4 176 -72.5t211 -132.5l153 49q-16 90 -18 455q-213 -113 -319 -225q-137 119 -261 184q14 20 27.5 150.5t13.5 256.5q0 141 -22.5 208t-81.5 102l2 22q86 10 202.5 37t170.5 49q-14 -106 -15 -288v-373l86 -66l197 86v279q0 143 -16.5 187 t-75.5 61v26q209 14 358 86v-942q0 -270 17 -346q-115 0 -261.5 -65.5t-250.5 -163.5q-223 164 -428 164z" />
<glyph unicode="z" horiz-adv-x="935" d="M72 170l254 240h-213v22q74 29 163 113h195l172 162q-168 20 -338 20q-86 0 -124 -16.5t-60 -75.5l-23 16q4 199 72 330q227 -47 440 -47q162 0 232 43l26 -8q-28 -72 -28 -237v-11l-199 -176h170v-15q-67 -67 -94 -161l-236 32l-221 -196q86 18 196.5 25.5t224.5 7.5 t157 4q4 -37 4 -64q0 -119 -35 -194q-55 16 -205 16q-362 0 -493 -23q-8 16 -22.5 83t-14.5 110z" />
<glyph unicode="{" horiz-adv-x="684" d="M29 717q78 27 133 140.5t55 203.5q0 41 -4 97t-4 91q0 100 28.5 168t106.5 105q-59 39 -133 59q133 33 264 33q92 0 207 -17q-137 -27 -185 -102.5t-48 -204.5q0 -41 6 -118.5t6 -131.5q0 -66 -51.5 -166t-110.5 -155q49 -35 108.5 -143.5t59.5 -180.5q0 -55 -6 -131 t-6 -119q0 -129 48 -204.5t185 -102.5q-158 -20 -237 -20q-115 0 -234 37q74 20 133 59q-78 37 -106.5 104.5t-28.5 167.5q0 35 4 91.5t4 97.5q0 104 -56 205.5t-138 136.5z" />
<glyph unicode="|" horiz-adv-x="579" d="M147 -76q37 76 37 232v1110q0 156 -37 231h283q-35 -96 -35 -229v-1114q0 -133 35 -230h-283z" />
<glyph unicode="}" horiz-adv-x="684" d="M-4 -162q137 27 185 102.5t48 204.5q0 43 -6 119t-6 131q0 72 59.5 180.5t108.5 143.5q-59 55 -110.5 155.5t-51.5 165.5q0 53 6.5 131t6.5 119q0 129 -48.5 205t-185.5 102q115 16 207 17q131 0 264 -33q-74 -20 -133 -59q78 -37 106.5 -104.5t28.5 -168.5q0 -35 -4 -91 t-4 -97q0 -90 55.5 -204t132.5 -140q-82 -35 -138 -136.5t-56 -205.5q0 -41 4 -97.5t4 -91.5q0 -100 -28.5 -167.5t-106.5 -104.5q59 -39 133 -59q-119 -37 -234 -37q-80 0 -237 20z" />
<glyph unicode="~" horiz-adv-x="1103" d="M137 338v258q59 6 145.5 50t127.5 93l288 -145q57 0 145.5 47t127.5 100v-262q-182 0 -271 -141l-292 145q-92 -2 -166 -45t-105 -100z" />
<glyph unicode="&#xa1;" horiz-adv-x="604" d="M109 991q6 4 55 42t84 66.5t49 47.5q31 -63 77 -109.5t124 -101.5q-37 -23 -103.5 -74t-89.5 -80q-106 55 -196 209zM143 -580q37 76 37 232v741q0 156 -37 232h328q-35 -96 -35 -230v-745q0 -133 35 -230h-328z" />
<glyph unicode="&#xa2;" horiz-adv-x="958" d="M80 68q61 96 61 405q0 236 -45 377q133 20 293 78q-4 102 -35 170h328q-27 -70 -33 -164q104 -45 232 -68q-39 -78 -107.5 -126t-140.5 -48q-106 0 -242 125q20 -170 21 -309q0 -154 -21 -293q106 -45 244 -55q12 78 65.5 136t137.5 83q-2 -23 -2 -115q-1 -117 24 -207 q-102 -18 -213 -86q6 -90 35 -174h-328q37 78 37 221q-184 47 -311 50z" />
<glyph unicode="&#xa3;" horiz-adv-x="1064" d="M80 639v23q86 33 170 106v164q0 197 -6 259t-35 120q98 25 214 78t185 112q131 -70 383 -125q-63 -182 -180 -182q-92 0 -281 121l-41 -27q27 -96 27 -397v-123h289v-8q-63 -68 -94 -162l-195 27v-250q0 -127 25.5 -177.5t93.5 -68.5h16q61 0 167 45t143 96v-262 q-182 0 -271 -141l-293 145q-92 -2 -165.5 -45t-104.5 -100v258q68 16 95.5 71.5t27.5 211.5v231h-170z" />
<glyph unicode="&#xa4;" horiz-adv-x="1144" d="M125 500q66 23 117 65q-20 55 -21 127q0 63 19 125q-53 41 -115 74l254 254q18 -59 70 -121q55 16 118 16q74 0 129 -18q47 53 72 121l254 -254q-66 -35 -119 -74q18 -58 19 -117q0 -61 -21 -129q51 -43 121 -67l-254 -254q-33 63 -76 117q-45 -14 -110 -15 q-78 0 -127 17q-41 -55 -76 -121zM381 692q0 -70 51 -128t141 -58q86 0 136.5 58.5t50.5 134t-50.5 131t-142.5 55.5q-88 0 -137 -57.5t-49 -135.5z" />
<glyph unicode="&#xa5;" horiz-adv-x="1681" d="M27 1536q119 0 191.5 -16.5t96 -34t56.5 -53.5q53 98 221 104q-57 -78 -57 -162q0 -12 4 -37l215 -514l75 -80l74 78l201 516q2 12 2 37q0 57 -76 162q100 -51 279 -51q59 0 163.5 25.5t182.5 25.5q-133 -82 -277.5 -311.5t-195.5 -403.5l55 15v-287q-84 31 -227 35 q-8 -8 -15.5 -17.5t-15.5 -20.5t-12 -18q0 -45 6 -96q188 0 264 37v-287q-88 31 -231 35q35 -152 73 -182q-166 -39 -231 -117q-37 39 -85 63.5t-83 33t-100 20.5q43 68 69 182q-141 -4 -225 -35v287h20q76 -37 238 -37q2 18 4 52t2 40l-55 60q-137 -8 -209 -35v287l37 -9 q-41 182 -179.5 416t-254.5 293z" />
<glyph unicode="&#xa6;" horiz-adv-x="585" d="M150 -74q37 76 36 232v207q0 156 -36 231h282q-35 -96 -35 -229v-211q0 -133 35 -230h-282zM150 831q37 76 36 232v207q0 156 -36 231h282q-35 -96 -35 -229v-211q0 -133 35 -230h-282z" />
<glyph unicode="&#xa7;" horiz-adv-x="1042" d="M86 1315q0 94 33 194q287 29 434 111q176 -111 385 -125q-61 -170 -227 -170q-138 0 -226 129q-14 -31 -14 -84q0 -129 122 -386t271 -349q-18 -29 -18 -78q0 -76 58.5 -299t58.5 -307q0 -129 -58 -270q-129 0 -276.5 -32t-214.5 -79q-137 133 -312 137q72 121 80 238 q199 -4 332 -185q27 55 27 156q0 84 -58.5 236.5t-148.5 283.5t-164 144q14 37 14 98q0 92 -49 323.5t-49 313.5zM233 1296q0 -125 121 -408.5t242 -564t121 -395.5q0 -39 -13.5 -105.5t-29.5 -96.5l71 16q47 74 48 188q0 129 -77 338t-169 393.5t-169 380t-77 304.5 q0 73 10 124l-57 -10q-20 -49 -21 -164z" />
<glyph unicode="&#xa8;" horiz-adv-x="901" d="M20 1331q90 154 197 209q23 -29 89.5 -80t103.5 -74q-78 -55 -124 -101t-77 -109q-14 18 -49 46.5t-84.5 66.5t-55.5 42zM492 1331q90 154 196 209q23 -29 89.5 -80t103.5 -74q-78 -55 -124 -101t-77 -109q-14 18 -49 46.5t-84 66.5t-55 42z" />
<glyph unicode="&#xa9;" horiz-adv-x="1699" d="M100 756q0 113 28 220t87 203.5t145 168t211 113.5t275 42q190 0 337.5 -62.5t236.5 -168t134 -235.5t45 -275q0 -143 -45 -274.5t-132 -239t-228 -171t-320 -63.5q-197 0 -349 63.5t-242 170t-136.5 235.5t-46.5 273zM262 756q0 -96 38 -196.5t107.5 -187.5 t186.5 -142.5t258 -55.5q270 0 427 178t157 410q0 150 -63.5 278.5t-201 215.5t-325.5 87q-274 0 -429 -178t-155 -409zM512 399q51 84 51 191q0 80 -39 180q43 80 43 195q0 29 -8 60.5t-21.5 63t-15.5 39.5q246 43 393 113q113 -70 273 -100q-33 -61 -88.5 -100.5 t-112.5 -39.5q-102 0 -192 84q16 -135 16 -294q0 -147 -16 -252q90 -39 194 -45q18 109 189 159q0 -188 18 -258q-53 -8 -128.5 -39.5t-102.5 -58.5q-55 35 -205 68.5t-248 33.5z" />
<glyph unicode="&#xaa;" horiz-adv-x="782" d="M96 823q20 57 21 209q0 72 -19 121q20 -4 68 -4q193 0 289 51v141q-113 -49 -191 -49q-53 0 -86 29t-51 109q4 0 12 -1.5t21 -1.5q184 0 295 62q96 -103 221 -103q-35 -55 -35 -245q0 -131 13.5 -171t52.5 -50v-15q-37 -14 -85.5 -64t-64.5 -85q-61 37 -94 118l-98 -118 q-117 68 -269 67zM307 930q92 -4 150 -17v201q-87 -33 -148 -39z" />
<glyph unicode="&#xab;" horiz-adv-x="1357" d="M49 475l412 457q6 -4 63.5 -12.5t96.5 -8.5q66 0 129 21q-23 -23 -111 -123t-184.5 -210t-108.5 -124q6 -8 107.5 -128t188.5 -221t110 -124q-76 20 -144 21q-70 0 -145 -21zM602 475l412 457q6 -4 63.5 -12.5t96.5 -8.5q66 0 129 21q-23 -23 -111 -123t-184.5 -210 t-108.5 -124q6 -8 107.5 -128t188.5 -221t110 -124q-76 20 -144 21q-70 0 -145 -21z" />
<glyph unicode="&#xac;" horiz-adv-x="1236" d="M94 758v282q76 -37 232 -36h538q78 0 137 8q68 12 93 28v-573q-29 6 -129 6q-96 0 -127 -6l63 324h-645q-80 -6 -162 -33z" />
<glyph unicode="&#xad;" horiz-adv-x="1030" d="M129 492v282q76 -37 231 -37h310q156 0 231 37v-282q-96 35 -229 34h-314q-133 0 -229 -34z" />
<glyph unicode="&#xae;" horiz-adv-x="1005" d="M86 1198q0 170 106.5 293t307.5 123q207 0 313.5 -120t106.5 -290t-104.5 -293t-297.5 -123q-213 0 -322.5 120t-109.5 290zM184 1198q0 -115 85 -215t237 -100q150 0 233.5 96t83.5 225q0 127 -84.5 221.5t-238.5 94.5q-150 0 -233 -96.5t-83 -225.5zM297 1028 q25 39 25 174q0 166 -25 201q45 2 122 23.5t107 35.5q49 -37 166 -37q0 -35 -20 -49q-2 -4 -2 -16q0 -59 12 -92q-14 -10 -51 -27q14 -20 57 -53q-4 -6 -4 -68q0 -104 10 -141q-82 0 -143 -35q8 35 8 82q0 18 -1 68.5t-1 70.5l-35 35q-16 -10 -41.5 -22.5t-34.5 -18.5 q10 -137 17 -178zM444 1245l101 47v72q-8 0 -101 20v-139z" />
<glyph unicode="&#xaf;" horiz-adv-x="710" d="M20 1284q8 74 8 110.5t-8 110.5q76 -37 232 -37h207q156 0 231 37q-8 -49 -8 -110.5t8 -110.5q-96 35 -229 35h-211q-133 0 -230 -35z" />
<glyph unicode="&#xb0;" horiz-adv-x="708" d="M84 1034q29 25 29 144q0 59 -8.5 130.5t-16.5 82.5q49 10 116.5 41.5t108.5 72.5q125 -41 246 -41q12 0 57 4q-12 -68 -12 -157q0 -111 19 -215q-55 -6 -135 -40t-121 -75q-23 16 -118 35.5t-143 19.5q-4 0 -12 -1t-10 -1zM256 1391q8 -76 8 -136q0 -23 -4 -120 q144 -13 195 -29l2 248q-162 16 -201 37z" />
<glyph unicode="&#xb1;" horiz-adv-x="1054" d="M141 190v283q76 -37 232 -37h309q156 0 231 37v-283q-96 35 -229 35h-313q-133 0 -230 -35zM141 821v283q76 -37 232 -37h49v49q0 156 -37 232h283q-35 -96 -35 -230v-51h49q156 0 231 37v-283q-96 35 -229 35h-51v-51q0 -133 35 -230h-283q37 76 37 232v49h-51 q-133 0 -230 -35z" />
<glyph unicode="&#xb2;" horiz-adv-x="788" d="M82 1458q45 8 157.5 65.5t137.5 90.5q47 -41 141 -74t137 -33h9q-8 -16 -9 -57v-92q0 -80 31 -121q-166 -31 -246 -72t-110 -123q70 18 90 19q117 0 188 -39q37 33 84 33q12 0 37 -8l-135 -209q-29 20 -91.5 36.5t-111.5 16.5q-55 0 -137 -20.5t-133 -59.5q-12 35 -12 96 q0 158 103 268.5t245 141.5v137q-55 -51 -186.5 -51t-188.5 55z" />
<glyph unicode="&#xb3;" horiz-adv-x="702" d="M78 930q10 35 10 76q0 45 -6 69q6 0 13 1t11 1q43 0 95.5 -30.5t81.5 -81.5l110 20q-2 6 -3 98.5t-1 98.5l-104 61l-95 -24l-43 71l43 68l95 -29l98 41q0 10 -1 48t-1 75q-53 -23 -127 -23q-113 0 -148 82q147 25 213 64q84 -59 263 -60q2 0 6 1.5t8 1.5 q-23 -68 -23 -224q-27 -8 -90 -22.5t-90 -24.5q25 -14 73 -27.5t81 -21.5t33 -12q0 -43 9 -171t15 -138q-63 0 -192 -29.5t-166 -52.5q-16 18 -76.5 52t-91.5 42z" />
<glyph unicode="&#xb4;" horiz-adv-x="430" d="M18 1264q145 225 199 329q23 -29 89.5 -80t103.5 -73q-104 -70 -297 -262q-18 16 -45 42t-50 44z" />
<glyph unicode="&#xb5;" horiz-adv-x="1153" d="M88 885l2 22q86 10 203 37t170 49q-14 -106 -14 -288v-414l86 -66l196 86v320q0 143 -16.5 187t-75.5 61v26q209 14 358 86v-483q0 -190 17.5 -255t75.5 -75v-22q-53 -23 -123 -92.5t-93 -120.5q-68 57 -98.5 106t-38.5 121q-188 -98 -286 -188q20 -106 94 -154l-2 -23 q-86 -10 -203 -36.5t-170 -49.5q25 174 25 449q0 57 -1 186t-1 201q0 152 -23 221.5t-82 108.5z" />
<glyph unicode="&#xb6;" horiz-adv-x="1347" d="M55 1497q401 -45 791 -45q248 0 444 39q-16 -113 -63 -170t-152 -90v-1348q0 -133 35 -229h-231q33 72 32 231v1342h-168v-1344q0 -133 35 -229h-254q37 76 37 231v672q-184 0 -272 -22q-43 47 -78 78.5t-79 64.5t-75 59q29 268 29 428q0 180 -31 332z" />
<glyph unicode="&#xb7;" horiz-adv-x="522" d="M70 639q90 154 196 209q23 -29 89.5 -80t103.5 -74q-78 -55 -124 -101t-77 -110q-14 18 -49 47t-84 67t-55 42z" />
<glyph unicode="&#xb8;" horiz-adv-x="509" d="M20 -532q49 125 152 124q35 0 85 -12t71 -33q0 6 -1 32t-2 71t-1 74q-49 8 -93 8q-45 0 -79 -8q-6 7 -37 38q2 31 2 95q0 195 -2 227h153v-246h125l86 -63q0 -266 10 -283q-61 -2 -144 -23.5t-122 -48.5q-53 66 -125 66q-43 0 -78 -18z" />
<glyph unicode="&#xb9;" horiz-adv-x="538" d="M20 1405q53 16 117 85t84 124q18 -20 45 -34.5t43.5 -20t49 -12.5t34.5 -7v-514q0 -72 62 -72q14 0 26 7q-92 -92 -162 -150q-61 68 -120 94v504q-20 -33 -86 -33q-74 0 -93 29z" />
<glyph unicode="&#xba;" horiz-adv-x="817" d="M88 829q39 35 39 201q0 84 -11.5 184.5t-21.5 114.5q119 23 258 160q168 -55 287 -55q59 0 80 4q-18 -92 -19 -219q0 -145 27 -301q-72 -10 -157 -55.5t-144 -106.5q-33 25 -139.5 51.5t-167.5 26.5q-14 0 -31 -5zM299 1358q12 -121 12 -219q0 -94 -6 -197 q117 -12 215 -41l4 406q-156 14 -225 51z" />
<glyph unicode="&#xbb;" horiz-adv-x="1357" d="M53 2q23 23 110 124t188.5 221t107.5 128q-12 14 -108.5 124t-184.5 210t-111 123q63 -20 129 -21q39 0 96.5 8.5t63.5 12.5l412 -457l-414 -473q-76 20 -145 21q-68 0 -144 -21zM606 2q23 23 110 124t188.5 221t107.5 128q-12 14 -108.5 124t-184.5 210t-111 123 q63 -20 129 -21q39 0 96.5 8.5t63.5 12.5l412 -457l-414 -473q-76 20 -145 21q-68 0 -144 -21z" />
<glyph unicode="&#xbc;" horiz-adv-x="1593" d="M45 1405q53 16 116.5 85t84.5 124q18 -20 44.5 -34.5t43 -20t49.5 -12.5t35 -7v-514q0 -72 61 -72q14 0 27 7q-92 -92 -162 -150q-61 68 -121 94v504q-20 -33 -86 -33q-74 0 -92 29zM213 0q63 34 149 227l523 1157q49 123 49 205q0 12 -4 25h315q-63 -35 -149 -228 l-523 -1157q-49 -123 -49 -204q0 -12 4 -25h-315zM907 356q29 20 148 191.5t133 240.5q49 -55 244 -75v-357h73q0 -98 21 -133q-20 16 -62 17h-32v-41q0 -72 59 -72q4 0 29 6q-12 -16 -94.5 -68.5t-96.5 -64.5q-65 58 -92 70l2 170h-119q-174 0 -200 -7q4 33 4 48 q0 63 -17 75zM1094 356h153v273q-82 -188 -153 -273z" />
<glyph unicode="&#xbd;" horiz-adv-x="1587" d="M45 1405q53 16 116.5 85t84.5 124q18 -20 44.5 -34.5t43 -20t49.5 -12.5t35 -7v-514q0 -72 61 -72q14 0 27 7q-92 -92 -162 -150q-61 68 -121 94v504q-20 -33 -86 -33q-74 0 -92 29zM213 0q63 34 149 227l523 1157q49 123 49 205q0 12 -4 25h315q-63 -35 -149 -228 l-523 -1157q-49 -123 -49 -204q0 -12 4 -25h-315zM879 647q45 8 157.5 65.5t137.5 90.5q47 -41 141 -74t137 -33h8q-8 -16 -8 -57v-92q0 -80 31 -121q-166 -31 -246 -72t-111 -123q70 18 91 19q117 0 188 -39q37 33 84 33q12 0 37 -8l-135 -209q-29 20 -91.5 36.5 t-111.5 16.5q-55 0 -137 -20.5t-133 -59.5q-12 35 -13 96q0 158 103.5 268.5t244.5 141.5v137q-55 -51 -186 -51q-129 0 -188 55z" />
<glyph unicode="&#xbe;" horiz-adv-x="1599" d="M63 930q10 35 11 76q0 45 -6 69q6 0 13 1t11 1q43 0 95.5 -30.5t80.5 -81.5l111 20q-2 6 -3 98.5t-1 98.5l-105 61l-94 -24l-43 71l43 68l94 -29l99 41q0 10 -1 48t-1 75q-53 -23 -127 -23q-113 0 -148 82q147 25 213 64q84 -59 262 -60q2 0 6.5 1.5t8.5 1.5 q-23 -68 -23 -224q-27 -8 -90 -22.5t-90 -24.5q25 -14 73 -27.5t80.5 -21.5t32.5 -12q0 -43 9.5 -171t15.5 -138q-63 0 -192.5 -29.5t-166.5 -52.5q-16 18 -76.5 52t-91.5 42zM276 0q64 34 150 227l522 1157q49 123 49 205q0 12 -4 25h316q-63 -35 -150 -228l-522 -1157 q-49 -123 -49 -204q0 -12 4 -25h-316zM926 356q29 20 147.5 191.5t132.5 240.5q49 -55 244 -75v-357h74q0 -98 20 -133q-20 16 -61 17h-33v-41q0 -72 59 -72q4 0 29 6q-12 -16 -94 -68.5t-96 -64.5q-66 58 -93 70l2 170h-118q-174 0 -201 -7q4 33 4 48q0 63 -16 75z M1112 356h154v273q-82 -188 -154 -273z" />
<glyph unicode="&#xbf;" horiz-adv-x="1026" d="M88 -449q20 33 21 609l317 209q0 176 -35 274h328q-33 -70 -33 -137q0 -131 33 -223l-316 -189l-6 -434q39 39 134.5 62.5t158.5 23.5q86 0 164 -61.5t125 -176.5q-80 33 -152 33q-131 0 -233 -121q-74 47 -230.5 88t-275.5 43zM365 934q78 55 124 101t76 110 q14 -18 49 -47t84.5 -67t55.5 -42q-90 -154 -197 -209q-23 29 -89.5 80t-102.5 74z" />
<glyph unicode="&#xc0;" d="M-35 -61q78 14 165 162.5t146 353.5l66 229q-176 184 -307 184q-10 0 -35 -2l-2 6q90 45 164 46q88 0 227 -78l111 379q18 61 18 104t-26.5 61.5t-90.5 18.5q-72 0 -200 -25q27 39 180.5 91.5t284.5 52.5t176 -56q68 4 158 29t114 41q-55 -78 -55 -219q0 -158 60.5 -336 t105.5 -209q0 -236 148.5 -507.5t314.5 -373.5l-2 -6q-297 109 -455 203q-53 -53 -91 -75.5t-108 -41.5q37 45 37 131q0 76 -43 211l-49 156q-121 -162 -219 -352q-20 29 -95 144.5t-128 189.5l-33 -107q-27 -86 -27 -166q0 -137 70 -239q-23 8 -41.5 16t-35.5 18.5 t-28.5 17.5t-29 21.5t-24.5 21.5t-29.5 26.5t-32.5 29.5q-154 -150 -359 -151zM389 1704q20 35 54 112.5t40 114.5q53 -37 218.5 -113.5t177.5 -82.5q-10 -25 -21.5 -61t-21.5 -58q-92 27 -239.5 54.5t-207.5 33.5zM596 645q56 -59 160 -192q18 23 74.5 96.5t84.5 112.5 l-157 512z" />
<glyph unicode="&#xc1;" d="M-35 -61q78 14 165 162.5t146 353.5l66 229q-176 184 -307 184q-10 0 -35 -2l-2 6q90 45 164 46q88 0 227 -78l111 379q18 61 18 104t-26.5 61.5t-90.5 18.5q-72 0 -200 -25q27 39 180.5 91.5t284.5 52.5t176 -56q68 4 158 29t114 41q-55 -78 -55 -219q0 -158 60.5 -336 t105.5 -209q0 -236 148.5 -507.5t314.5 -373.5l-2 -6q-297 109 -455 203q-53 -53 -91 -75.5t-108 -41.5q37 45 37 131q0 76 -43 211l-49 156q-121 -162 -219 -352q-20 29 -95 144.5t-128 189.5l-33 -107q-27 -86 -27 -166q0 -137 70 -239q-23 8 -41.5 16t-35.5 18.5 t-28.5 17.5t-29 21.5t-24.5 21.5t-29.5 26.5t-32.5 29.5q-154 -150 -359 -151zM596 645q56 -59 160 -192q18 23 74.5 96.5t84.5 112.5l-157 512zM614 1735q12 6 177 82.5t219 113.5q6 -37 39.5 -114.5t54.5 -112.5q-59 -6 -206.5 -34t-240.5 -54q-10 23 -21.5 58.5 t-21.5 60.5z" />
<glyph unicode="&#xc2;" d="M-35 -61q78 14 165 162.5t146 353.5l66 229q-176 184 -307 184q-10 0 -35 -2l-2 6q90 45 164 46q88 0 227 -78l111 379q18 61 18 104t-26.5 61.5t-90.5 18.5q-72 0 -200 -25q27 39 180.5 91.5t284.5 52.5t176 -56q68 4 158 29t114 41q-55 -78 -55 -219q0 -158 60.5 -336 t105.5 -209q0 -236 148.5 -507.5t314.5 -373.5l-2 -6q-297 109 -455 203q-53 -53 -91 -75.5t-108 -41.5q37 45 37 131q0 76 -43 211l-49 156q-121 -162 -219 -352q-20 29 -95 144.5t-128 189.5l-33 -107q-27 -86 -27 -166q0 -137 70 -239q-23 8 -41.5 16t-35.5 18.5 t-28.5 17.5t-29 21.5t-24.5 21.5t-29.5 26.5t-32.5 29.5q-154 -150 -359 -151zM408 1696q35 25 158.5 107.5t189.5 131.5q303 -198 350 -239q-18 -14 -31.5 -27.5t-30 -29t-32.5 -29.5q-106 59 -254 110q-145 -49 -256 -110q-18 16 -45 41.5t-49 44.5zM596 645 q56 -59 160 -192q18 23 74.5 96.5t84.5 112.5l-157 512z" />
<glyph unicode="&#xc3;" d="M-35 -61q78 14 165 162.5t146 353.5l66 229q-176 184 -307 184q-10 0 -35 -2l-2 6q90 45 164 46q88 0 227 -78l111 379q18 61 18 104t-26.5 61.5t-90.5 18.5q-72 0 -200 -25q27 39 180.5 91.5t284.5 52.5t176 -56q68 4 158 29t114 41q-55 -78 -55 -219q0 -158 60.5 -336 t105.5 -209q0 -236 148.5 -507.5t314.5 -373.5l-2 -6q-297 109 -455 203q-53 -53 -91 -75.5t-108 -41.5q37 45 37 131q0 76 -43 211l-49 156q-121 -162 -219 -352q-20 29 -95 144.5t-128 189.5l-33 -107q-27 -86 -27 -166q0 -137 70 -239q-23 8 -41.5 16t-35.5 18.5 t-28.5 17.5t-29 21.5t-24.5 21.5t-29.5 26.5t-32.5 29.5q-154 -150 -359 -151zM414 1604v237q115 6 252 88l186 -90q92 6 252 92v-241q-164 -2 -250 -86l-190 90q-158 -2 -250 -90zM596 645q56 -59 160 -192q18 23 74.5 96.5t84.5 112.5l-157 512z" />
<glyph unicode="&#xc4;" d="M-35 -61q78 14 165 162.5t146 353.5l66 229q-176 184 -307 184q-10 0 -35 -2l-2 6q90 45 164 46q88 0 227 -78l111 379q18 61 18 104t-26.5 61.5t-90.5 18.5q-72 0 -200 -25q27 39 180.5 91.5t284.5 52.5t176 -56q68 4 158 29t114 41q-55 -78 -55 -219q0 -158 60.5 -336 t105.5 -209q0 -236 148.5 -507.5t314.5 -373.5l-2 -6q-297 109 -455 203q-53 -53 -91 -75.5t-108 -41.5q37 45 37 131q0 76 -43 211l-49 156q-121 -162 -219 -352q-20 29 -95 144.5t-128 189.5l-33 -107q-27 -86 -27 -166q0 -137 70 -239q-23 8 -41.5 16t-35.5 18.5 t-28.5 17.5t-29 21.5t-24.5 21.5t-29.5 26.5t-32.5 29.5q-154 -150 -359 -151zM381 1749q82 137 176 186q47 -55 172 -137q-70 -51 -110.5 -91t-69.5 -97q-16 22 -168 139zM596 645q56 -59 160 -192q18 23 74.5 96.5t84.5 112.5l-157 512zM788 1749q82 137 177 186 q47 -55 172 -137q-70 -51 -111 -91t-70 -97q-16 22 -168 139z" />
<glyph unicode="&#xc5;" d="M-35 -61q78 14 165 162.5t146 353.5l66 229q-176 184 -307 184q-10 0 -35 -2l-2 6q90 45 164 46q88 0 227 -78l111 379q18 61 18 104t-26.5 61.5t-90.5 18.5q-72 0 -200 -25q27 39 180.5 91.5t284.5 52.5t176 -56q68 4 158 29t114 41q-55 -78 -55 -219q0 -158 60.5 -336 t105.5 -209q0 -236 148.5 -507.5t314.5 -373.5l-2 -6q-297 109 -455 203q-53 -53 -91 -75.5t-108 -41.5q37 45 37 131q0 76 -43 211l-49 156q-121 -162 -219 -352q-20 29 -95 144.5t-128 189.5l-33 -107q-27 -86 -27 -166q0 -137 70 -239q-23 8 -41.5 16t-35.5 18.5 t-28.5 17.5t-29 21.5t-24.5 21.5t-29.5 26.5t-32.5 29.5q-154 -150 -359 -151zM588 1772q0 66 45 114.5t125 48.5q82 0 126 -47t44 -112q0 -68 -43 -117t-121 -49q-84 0 -130 47t-46 115zM596 645q56 -59 160 -192q18 23 74.5 96.5t84.5 112.5l-157 512zM713 1771.5 q0 -16.5 12 -28.5t35 -12q39 0 39 43q0 41 -41 41q-20 0 -32.5 -13.5t-12.5 -30z" />
<glyph unicode="&#xc6;" horiz-adv-x="1902" d="M-49 -61q145 16 332 516l98 264q-199 67 -385 67q125 49 287 50q92 0 141 -2l143 385q18 49 19 110q0 37 -41 55.5t-103 18.5q-66 0 -194 -25q23 35 170 69t287 34q141 0 223 -19q242 12 364 99q100 -47 158.5 -65.5t134.5 -18.5q94 0 199 24q-2 -127 -78 -190.5 t-170 -63.5q-23 0 -42 3t-44 14.5t-35 16.5t-47 27.5t-49 28.5q-6 -6 -127 -86v-346q61 -10 96 -10q68 0 152 59q8 -6 39.5 -35.5t51 -47t53.5 -41t65 -37.5q-33 -16 -66 -39t-84 -66t-57 -47q-80 70 -146 70q-47 0 -98 -15q-16 -92 -16 -227q0 -80 16 -190q18 -12 84 -61.5 t129 -94.5q4 6 33 22.5t54.5 30.5t27.5 14q-14 109 -27 134q160 145 338 219q-45 -82 -45 -246q0 -121 25 -166q-96 -47 -139.5 -70.5t-112 -76t-146.5 -134.5q-70 53 -237.5 134.5t-304.5 126.5q8 96 12 309q-106 104 -258 188l-103 -264q-43 -109 -43 -197q0 -106 66 -208 q-23 8 -41 16t-35.5 18.5t-29 17.5t-29 21.5t-24.5 21.5t-29.5 26.5t-32.5 29.5q-162 -150 -379 -151zM705 803q104 -18 184 -58q0 391 2 506l-4 25z" />
<glyph unicode="&#xc7;" horiz-adv-x="1282" d="M84 1524q231 -25 471 -25q174 0 361.5 14.5t216.5 14.5q27 0 51 -4q-20 -41 -47 -219.5t-39 -290.5l-15 -6q-70 51 -101.5 113.5t-49.5 162.5q-47 35 -180 35q-39 0 -102.5 -2t-78.5 -2q-41 -223 -41 -676q0 -289 15 -446l346 -35q18 80 62 158.5t85 130t111 126.5l12 -4 q-10 -80 -10 -182q0 -213 35 -321q-162 -18 -322 -154q-43 14 -129 35v-109h125l86 -63q0 -266 10 -283q-61 -2 -144 -23.5t-122 -48.5q-53 66 -125 66q-43 0 -78 -18q49 125 152 124q35 0 85 -12t71 -33q0 6 -1 32t-2 71t-1 74q-61 8 -93 8q-45 0 -80 -8l-36 38q2 31 2 218 q-203 35 -363 34q-61 0 -121 -20l-2 6q57 35 93 178.5t36 274.5q0 213 -73 303q109 106 108 454q0 61 -6 136q-47 20 -98.5 71t-73.5 107z" />
<glyph unicode="&#xc8;" horiz-adv-x="1275" d="M80 1524q231 -25 471 -25q174 0 361.5 14.5t215.5 14.5q27 0 52 -4q-20 -37 -48 -193.5t-38 -255.5l-15 -6q-68 37 -100.5 87t-50.5 128q-47 35 -180 35q-39 0 -102.5 -2t-78.5 -2q-31 -156 -37 -438q55 -6 105 -7q80 0 166 121q6 -14 26.5 -70.5t40 -95.5t45.5 -57 q-55 -57 -120 -233q-80 152 -150 151q-68 0 -117 -10v-37q0 -289 15 -446l346 -35q18 80 62 158.5t85 130t111 126.5l12 -4q-10 -80 -10 -182q0 -213 35 -321q-162 -18 -322 -154q-342 102 -643 102q-62 0 -121 -20l-2 6q57 35 93 178.5t36 274.5q0 213 -73 303 q109 106 108 454q0 61 -6 136q-47 20 -98.5 71t-73.5 107zM283 1704q20 35 54 112.5t40 114.5q53 -37 218 -113.5t177 -82.5q-10 -25 -21.5 -61t-21.5 -58q-92 27 -239.5 54.5t-206.5 33.5z" />
<glyph unicode="&#xc9;" horiz-adv-x="1275" d="M80 1524q231 -25 471 -25q174 0 361.5 14.5t215.5 14.5q27 0 52 -4q-20 -37 -48 -193.5t-38 -255.5l-15 -6q-68 37 -100.5 87t-50.5 128q-47 35 -180 35q-39 0 -102.5 -2t-78.5 -2q-31 -156 -37 -438q55 -6 105 -7q80 0 166 121q6 -14 26.5 -70.5t40 -95.5t45.5 -57 q-55 -57 -120 -233q-80 152 -150 151q-68 0 -117 -10v-37q0 -289 15 -446l346 -35q18 80 62 158.5t85 130t111 126.5l12 -4q-10 -80 -10 -182q0 -213 35 -321q-162 -18 -322 -154q-342 102 -643 102q-62 0 -121 -20l-2 6q57 35 93 178.5t36 274.5q0 213 -73 303 q109 106 108 454q0 61 -6 136q-47 20 -98.5 71t-73.5 107zM508 1735q12 6 177 82.5t218 113.5q6 -37 40 -114.5t54 -112.5q-59 -6 -206.5 -34t-239.5 -54q-10 23 -21.5 58.5t-21.5 60.5z" />
<glyph unicode="&#xca;" horiz-adv-x="1275" d="M80 1524q231 -25 471 -25q174 0 361.5 14.5t215.5 14.5q27 0 52 -4q-20 -37 -48 -193.5t-38 -255.5l-15 -6q-68 37 -100.5 87t-50.5 128q-47 35 -180 35q-39 0 -102.5 -2t-78.5 -2q-31 -156 -37 -438q55 -6 105 -7q80 0 166 121q6 -14 26.5 -70.5t40 -95.5t45.5 -57 q-55 -57 -120 -233q-80 152 -150 151q-68 0 -117 -10v-37q0 -289 15 -446l346 -35q18 80 62 158.5t85 130t111 126.5l12 -4q-10 -80 -10 -182q0 -213 35 -321q-162 -18 -322 -154q-342 102 -643 102q-62 0 -121 -20l-2 6q57 35 93 178.5t36 274.5q0 213 -73 303 q109 106 108 454q0 61 -6 136q-47 20 -98.5 71t-73.5 107zM301 1696q35 25 159 107.5t189 131.5q303 -198 350 -239q-18 -14 -31.5 -27.5t-29.5 -29t-33 -29.5q-106 59 -254 110q-145 -49 -256 -110q-18 16 -44.5 41.5t-49.5 44.5z" />
<glyph unicode="&#xcb;" horiz-adv-x="1275" d="M80 1524q231 -25 471 -25q174 0 361.5 14.5t215.5 14.5q27 0 52 -4q-20 -37 -48 -193.5t-38 -255.5l-15 -6q-68 37 -100.5 87t-50.5 128q-47 35 -180 35q-39 0 -102.5 -2t-78.5 -2q-31 -156 -37 -438q55 -6 105 -7q80 0 166 121q6 -14 26.5 -70.5t40 -95.5t45.5 -57 q-55 -57 -120 -233q-80 152 -150 151q-68 0 -117 -10v-37q0 -289 15 -446l346 -35q18 80 62 158.5t85 130t111 126.5l12 -4q-10 -80 -10 -182q0 -213 35 -321q-162 -18 -322 -154q-342 102 -643 102q-62 0 -121 -20l-2 6q57 35 93 178.5t36 274.5q0 213 -73 303 q109 106 108 454q0 61 -6 136q-47 20 -98.5 71t-73.5 107zM264 1749q82 137 176 186q47 -55 172 -137q-70 -51 -110.5 -91t-69.5 -97q-16 22 -168 139zM672 1749q82 137 176 186q47 -55 172 -137q-70 -51 -111 -91t-69 -97q-16 22 -168 139z" />
<glyph unicode="&#xcc;" horiz-adv-x="811" d="M43 1704q20 35 54 112.5t40 114.5q53 -37 218 -113.5t177 -82.5q-10 -25 -21 -61t-22 -58q-92 27 -239.5 54.5t-206.5 33.5zM84 -10q86 51 143.5 165.5t57.5 231.5q0 240 -103 369q94 176 94 377q0 58 -6 122q-127 51 -145 261q127 -35 237 -35q78 -1 340 32 q-78 -51 -115.5 -169.5t-37.5 -243.5q0 -215 59 -344q-55 -94 -55 -289q0 -145 36 -260t134 -219q-197 25 -344 24q-129 0 -295 -22z" />
<glyph unicode="&#xcd;" horiz-adv-x="811" d="M84 -10q86 51 143.5 165.5t57.5 231.5q0 240 -103 369q94 176 94 377q0 58 -6 122q-127 51 -145 261q127 -35 237 -35q78 -1 340 32q-78 -51 -115.5 -169.5t-37.5 -243.5q0 -215 59 -344q-55 -94 -55 -289q0 -145 36 -260t134 -219q-197 25 -344 24q-129 0 -295 -22z M268 1735q12 6 177 82.5t219 113.5q6 -37 39.5 -114.5t54.5 -112.5q-59 -6 -207 -34t-240 -54q-10 23 -21.5 58.5t-21.5 60.5z" />
<glyph unicode="&#xce;" horiz-adv-x="811" d="M61 1696q35 25 159 107.5t190 131.5q303 -198 350 -239q-18 -14 -31.5 -27.5t-30 -29t-32.5 -29.5q-106 59 -254 110q-145 -49 -256 -110q-18 16 -45 41.5t-50 44.5zM84 -10q86 51 143.5 165.5t57.5 231.5q0 240 -103 369q94 176 94 377q0 58 -6 122q-127 51 -145 261 q127 -35 237 -35q78 -1 340 32q-78 -51 -115.5 -169.5t-37.5 -243.5q0 -215 59 -344q-55 -94 -55 -289q0 -145 36 -260t134 -219q-197 25 -344 24q-129 0 -295 -22z" />
<glyph unicode="&#xcf;" horiz-adv-x="811" d="M25 1749q82 137 176 186q47 -55 172 -137q-70 -51 -111 -91t-69 -97q-16 22 -168 139zM84 -10q86 51 143.5 165.5t57.5 231.5q0 240 -103 369q94 176 94 377q0 58 -6 122q-127 51 -145 261q127 -35 237 -35q78 -1 340 32q-78 -51 -115.5 -169.5t-37.5 -243.5 q0 -215 59 -344q-55 -94 -55 -289q0 -145 36 -260t134 -219q-197 25 -344 24q-129 0 -295 -22zM432 1749q82 137 176 186q47 -55 172 -137q-70 -51 -110.5 -91t-69.5 -97q-16 22 -168 139z" />
<glyph unicode="&#xd0;" horiz-adv-x="1470" d="M55 578v266q72 -37 207 -37q29 113 29 334q0 129 -43 196.5t-185 171.5q25 0 72 1t70 1q461 0 690 35q149 -90 358 -147q6 -94 18.5 -169t26 -119t42 -136t49.5 -168q-37 -76 -60.5 -224.5t-23.5 -256.5q0 -88 16 -146q-109 -20 -196 -92t-185 -199q-299 131 -850 131 q53 27 129 129.5t76 176.5q0 190 -27 286q-125 -4 -213 -34zM561 610q8 -231 23 -405q96 -29 260 -58q59 95 180 148q2 117 25.5 287t58.5 229q-94 281 -123 494q-256 -6 -416 -60q-8 -229 -8 -438q100 8 162 37v-266q-82 27 -162 32z" />
<glyph unicode="&#xd1;" horiz-adv-x="1572" d="M-23 -215q129 123 212 299t83 352q0 182 -92 320q100 193 101 344q0 242 -256 424q23 6 47 6q41 0 209 -28.5t290 -28.5q53 0 80 2q-111 -43 -127 -152q248 -616 504 -995l41 -62q-2 63 -9 147.5t-7 112.5q0 117 -1 241t-3 216t-4.5 166t-3.5 115t-1 39q-10 127 -129 172 q27 -2 80 -2q139 0 309 28.5t213 28.5q27 0 48 -6q-256 -182 -256 -424q0 -152 100 -344q-106 -264 -107 -531q0 -156 25 -286q76 -82 143.5 -126t99 -51.5t93.5 -15.5l-53 135q170 -94 307 -143t303 -49q141 0 268 18q-344 -135 -639 -135q-150 0 -289 39t-250.5 102.5 t-218 157.5t-186.5 189.5t-156.5 214t-129 217t-105.5 210.5v-208q0 -242 32.5 -356.5t119.5 -215.5q-92 25 -145.5 53.5t-143.5 102.5q-115 -201 -396 -293zM459 1604v237q115 6 252 88l186 -90q92 6 252 92v-241q-164 -2 -250 -86l-190 90q-158 -2 -250 -90z" />
<glyph unicode="&#xd2;" horiz-adv-x="1415" d="M84 1434q129 10 291 48t266 85q96 -12 342 -79t285 -71q-53 -88 -54 -264q0 -119 30 -232.5t81 -181.5q-51 -63 -84 -174.5t-33 -224.5q0 -221 123 -299q-131 -10 -296 -48t-269 -85q-96 12 -338 78.5t-281 70.5q51 49 52 226q0 152 -35 298t-78 160q53 59 87 169t34 223 q0 229 -123 301zM346 1704q20 35 54 112.5t40 114.5q53 -37 218.5 -113.5t177.5 -82.5q-10 -25 -21.5 -61t-21.5 -58q-92 27 -239.5 54.5t-207.5 33.5zM453 618q0 -61 1 -197.5t1 -189.5q152 -86 282 -108q49 25 96.5 42t75 25.5t33.5 12.5q10 543 10 700q0 225 -4 330 q-59 35 -90 50t-80 31.5t-110 26.5q-49 -25 -97.5 -44t-75 -28t-34.5 -14q-8 -180 -8 -637z" />
<glyph unicode="&#xd3;" horiz-adv-x="1415" d="M84 1434q129 10 291 48t266 85q96 -12 342 -79t285 -71q-53 -88 -54 -264q0 -119 30 -232.5t81 -181.5q-51 -63 -84 -174.5t-33 -224.5q0 -221 123 -299q-131 -10 -296 -48t-269 -85q-96 12 -338 78.5t-281 70.5q51 49 52 226q0 152 -35 298t-78 160q53 59 87 169t34 223 q0 229 -123 301zM453 618q0 -61 1 -197.5t1 -189.5q152 -86 282 -108q49 25 96.5 42t75 25.5t33.5 12.5q10 543 10 700q0 225 -4 330q-59 35 -90 50t-80 31.5t-110 26.5q-49 -25 -97.5 -44t-75 -28t-34.5 -14q-8 -180 -8 -637zM571 1735q12 6 177 82.5t219 113.5 q6 -37 39.5 -114.5t54.5 -112.5q-59 -6 -206.5 -34t-240.5 -54q-10 23 -21.5 58.5t-21.5 60.5z" />
<glyph unicode="&#xd4;" horiz-adv-x="1415" d="M84 1434q129 10 291 48t266 85q96 -12 342 -79t285 -71q-53 -88 -54 -264q0 -119 30 -232.5t81 -181.5q-51 -63 -84 -174.5t-33 -224.5q0 -221 123 -299q-131 -10 -296 -48t-269 -85q-96 12 -338 78.5t-281 70.5q51 49 52 226q0 152 -35 298t-78 160q53 59 87 169t34 223 q0 229 -123 301zM365 1696q35 25 158.5 107.5t189.5 131.5q303 -198 350 -239q-18 -14 -31.5 -27.5t-30 -29t-32.5 -29.5q-106 59 -254 110q-145 -49 -256 -110q-18 16 -45 41.5t-49 44.5zM453 618q0 -61 1 -197.5t1 -189.5q152 -86 282 -108q49 25 96.5 42t75 25.5 t33.5 12.5q10 543 10 700q0 225 -4 330q-59 35 -90 50t-80 31.5t-110 26.5q-49 -25 -97.5 -44t-75 -28t-34.5 -14q-8 -180 -8 -637z" />
<glyph unicode="&#xd5;" horiz-adv-x="1415" d="M84 1434q129 10 291 48t266 85q96 -12 342 -79t285 -71q-53 -88 -54 -264q0 -119 30 -232.5t81 -181.5q-51 -63 -84 -174.5t-33 -224.5q0 -221 123 -299q-131 -10 -296 -48t-269 -85q-96 12 -338 78.5t-281 70.5q51 49 52 226q0 152 -35 298t-78 160q53 59 87 169t34 223 q0 229 -123 301zM371 1604v237q115 6 252 88l186 -90q92 6 252 92v-241q-164 -2 -250 -86l-190 90q-158 -2 -250 -90zM453 618q0 -61 1 -197.5t1 -189.5q152 -86 282 -108q49 25 96.5 42t75 25.5t33.5 12.5q10 543 10 700q0 225 -4 330q-59 35 -90 50t-80 31.5t-110 26.5 q-49 -25 -97.5 -44t-75 -28t-34.5 -14q-8 -180 -8 -637z" />
<glyph unicode="&#xd6;" horiz-adv-x="1415" d="M84 1434q129 10 291 48t266 85q96 -12 342 -79t285 -71q-53 -88 -54 -264q0 -119 30 -232.5t81 -181.5q-51 -63 -84 -174.5t-33 -224.5q0 -221 123 -299q-131 -10 -296 -48t-269 -85q-96 12 -338 78.5t-281 70.5q51 49 52 226q0 152 -35 298t-78 160q53 59 87 169t34 223 q0 229 -123 301zM328 1749q82 137 176 186q47 -55 172 -137q-70 -51 -111 -91t-69 -97q-16 22 -168 139zM453 618q0 -61 1 -197.5t1 -189.5q152 -86 282 -108q49 25 96.5 42t75 25.5t33.5 12.5q10 543 10 700q0 225 -4 330q-59 35 -90 50t-80 31.5t-110 26.5 q-49 -25 -97.5 -44t-75 -28t-34.5 -14q-8 -180 -8 -637zM735 1749q82 137 176 186q47 -55 172 -137q-70 -51 -110.5 -91t-69.5 -97q-16 22 -168 139z" />
<glyph unicode="&#xd7;" horiz-adv-x="931" d="M92 563q86 31 191 139l32 33l-32 35q-104 109 -191 139l201 199q39 -88 137 -186l35 -37l35 35q109 104 139 190l199 -201q-88 -39 -187 -137l-37 -37l37 -35q98 -98 187 -137l-199 -201q-31 86 -139 191l-35 33l-35 -35q-98 -98 -137 -186z" />
<glyph unicode="&#xd8;" horiz-adv-x="2084" d="M-43 0q33 4 174 95t231 167l183 154q-12 123 -42 219t-63 106q53 59 87 169t34 223q0 229 -123 301q129 10 291 48t266 85q96 -12 342 -79t285 -71q-31 -51 -43 -135l57 49q150 125 170 172h312q-31 -8 -158 -95t-219 -165l-172 -143q14 -236 110 -361 q-51 -63 -83.5 -174.5t-32.5 -224.5q0 -221 123 -299q-131 -10 -296 -48t-270 -85q-96 12 -337.5 78.5t-280.5 70.5q45 41 51 189l-86 -72q-150 -127 -174 -174h-336zM807 459q2 -83 2 -228q152 -86 283 -108q49 25 96 42t74.5 25.5t33.5 12.5q10 522 11 676zM807 635 l500 420q0 63 -4 178q-59 35 -90 50t-80.5 31.5t-110.5 26.5q-49 -25 -97 -44t-75 -28.5t-35 -13.5q-8 -178 -8 -620z" />
<glyph unicode="&#xd9;" horiz-adv-x="1452" d="M106 1493q74 -6 113 -11t87 -18.5t71.5 -33t50.5 -53.5t42 -83t30 -118q0 -170 -18.5 -464t-22.5 -390l155 -191q119 74 279 80q35 96 35 534q0 262 2 416q-6 147 -19 318q123 -39 238 -39q100 0 248 39q-23 -223 -201 -265q-4 -40 -4 -118q0 -129 35 -250t69 -144 q-119 -119 -118 -405q0 -53 4 -94q27 -6 59 -19q125 -63 141 -245q-215 66 -385 65q-186 0 -329.5 -31.5t-206.5 -70.5q-27 55 -94.5 120.5t-192.5 167.5q8 49 8 138q0 143 -18.5 253.5t-48.5 133.5q104 133 104 391q0 227 -113 387zM340 1704q20 35 54 112.5t40 114.5 q53 -37 218 -113.5t177 -82.5q-10 -25 -21 -61t-22 -58q-92 27 -239.5 54.5t-206.5 33.5z" />
<glyph unicode="&#xda;" horiz-adv-x="1452" d="M106 1493q74 -6 113 -11t87 -18.5t71.5 -33t50.5 -53.5t42 -83t30 -118q0 -170 -18.5 -464t-22.5 -390l155 -191q119 74 279 80q35 96 35 534q0 262 2 416q-6 147 -19 318q123 -39 238 -39q100 0 248 39q-23 -223 -201 -265q-4 -40 -4 -118q0 -129 35 -250t69 -144 q-119 -119 -118 -405q0 -53 4 -94q27 -6 59 -19q125 -63 141 -245q-215 66 -385 65q-186 0 -329.5 -31.5t-206.5 -70.5q-27 55 -94.5 120.5t-192.5 167.5q8 49 8 138q0 143 -18.5 253.5t-48.5 133.5q104 133 104 391q0 227 -113 387zM565 1735q12 6 177 82.5t219 113.5 q6 -37 39.5 -114.5t54.5 -112.5q-59 -6 -207 -34t-240 -54q-10 23 -21.5 58.5t-21.5 60.5z" />
<glyph unicode="&#xdb;" horiz-adv-x="1452" d="M106 1493q74 -6 113 -11t87 -18.5t71.5 -33t50.5 -53.5t42 -83t30 -118q0 -170 -18.5 -464t-22.5 -390l155 -191q119 74 279 80q35 96 35 534q0 262 2 416q-6 147 -19 318q123 -39 238 -39q100 0 248 39q-23 -223 -201 -265q-4 -40 -4 -118q0 -129 35 -250t69 -144 q-119 -119 -118 -405q0 -53 4 -94q27 -6 59 -19q125 -63 141 -245q-215 66 -385 65q-186 0 -329.5 -31.5t-206.5 -70.5q-27 55 -94.5 120.5t-192.5 167.5q8 49 8 138q0 143 -18.5 253.5t-48.5 133.5q104 133 104 391q0 227 -113 387zM358 1696q35 25 159 107.5t190 131.5 q303 -198 350 -239q-18 -14 -31.5 -27.5t-30 -29t-32.5 -29.5q-106 59 -254 110q-145 -49 -256 -110q-18 16 -45 41.5t-50 44.5z" />
<glyph unicode="&#xdc;" horiz-adv-x="1452" d="M106 1493q74 -6 113 -11t87 -18.5t71.5 -33t50.5 -53.5t42 -83t30 -118q0 -170 -18.5 -464t-22.5 -390l155 -191q119 74 279 80q35 96 35 534q0 262 2 416q-6 147 -19 318q123 -39 238 -39q100 0 248 39q-23 -223 -201 -265q-4 -40 -4 -118q0 -129 35 -250t69 -144 q-119 -119 -118 -405q0 -53 4 -94q27 -6 59 -19q125 -63 141 -245q-215 66 -385 65q-186 0 -329.5 -31.5t-206.5 -70.5q-27 55 -94.5 120.5t-192.5 167.5q8 49 8 138q0 143 -18.5 253.5t-48.5 133.5q104 133 104 391q0 227 -113 387zM342 1749q82 137 176 186 q47 -55 172 -137q-70 -51 -110.5 -91t-69.5 -97q-16 22 -168 139zM750 1749q82 137 176 186q47 -55 172 -137q-70 -51 -111 -91t-69 -97q-16 22 -168 139z" />
<glyph unicode="&#xdd;" horiz-adv-x="1550" d="M-35 1507q178 -2 241.5 -23.5t110.5 -72.5q53 96 244 105q-59 -82 -59 -162q0 -12 4 -37l217 -508l78 -80l76 78l208 510q2 12 2 37q0 61 -77 162q102 -51 270 -52q51 0 145.5 26t178.5 26q-158 -96 -321 -383t-165 -424q-37 -23 -68.5 -59t-69.5 -90t-54 -75 q4 -125 35.5 -253t76.5 -177q-96 -66 -150 -122t-85 -138q-35 143 -273 260q100 150 109 428q-12 12 -54 58.5t-61.5 66t-52.5 47t-61 43.5q0 193 -137.5 448t-307.5 361zM633 1735q12 6 177 82.5t218 113.5q6 -37 40 -114.5t54 -112.5q-59 -6 -206.5 -34t-239.5 -54 q-10 23 -21.5 58.5t-21.5 60.5z" />
<glyph unicode="&#xde;" horiz-adv-x="1380" d="M104 715q90 133 91 334q0 104 -21.5 230t-60.5 181q98 35 151 63.5t137 94.5q82 -78 248 -158q-55 -70 -88 -145q88 -47 320.5 -100.5t388.5 -53.5q59 0 110 8q-76 -164 -176 -223q-20 -147 -20 -252q0 -150 65 -282q-125 -33 -195.5 -83.5t-138.5 -140.5 q-115 39 -387 43q49 -174 115 -213l-26 -10q-26 -10 -40 -15t-42.5 -20.5t-50 -30t-46 -36t-43.5 -45.5q-18 23 -41.5 42t-49 34.5t-48.5 26.5t-49.5 21.5t-41.5 15.5t-35.5 11t-23.5 6q39 55 60.5 180.5t21.5 229.5q0 86 -25.5 169t-58.5 118zM496 471q53 4 92 4 q215 0 278 -43q23 47 64 72q-2 43 -6 216t-6 214q-102 16 -251 63t-165 52q-2 -20 -3 -44t-2 -51t-1 -41v-442z" />
<glyph unicode="&#xdf;" horiz-adv-x="1062" d="M98 -244q37 76 37 232v1284q236 178 371 342q131 -66 446 -119q-18 -57 -18 -143q0 -301 8 -332l-262 -205v-16q6 -2 81 -45t146.5 -84t73.5 -41q-14 -80 -14 -353q0 -113 14 -182q-227 -104 -502 -198l-16 6q90 43 172 127t82 192v316q-182 129 -250 165v166l262 228 v209l-338 104v-1423q0 -133 35 -230h-328z" />
<glyph unicode="&#xe0;" horiz-adv-x="978" d="M68 41q29 78 28 297q0 104 -26 172q46 -6 98 -6q117 0 233.5 20.5t178.5 53.5v202q-162 -72 -271 -71q-76 0 -123 41t-73 155q6 0 17 -1t30 -1q264 0 420 88q133 -145 317 -145q-31 -49 -41 -123t-10 -229q0 -188 18.5 -246t75.5 -70v-22q-53 -20 -121.5 -91t-93.5 -122 q-84 55 -133 170l-141 -170q-162 96 -383 98zM262 1440q37 23 103.5 74t89.5 79q53 -104 198 -329q-23 -18 -49 -44t-45 -42q-193 193 -297 262zM369 193q152 -10 213 -25v289q-117 -48 -209 -58z" />
<glyph unicode="&#xe1;" horiz-adv-x="978" d="M68 41q29 78 28 297q0 104 -26 172q46 -6 98 -6q117 0 233.5 20.5t178.5 53.5v202q-162 -72 -271 -71q-76 0 -123 41t-73 155q6 0 17 -1t30 -1q264 0 420 88q133 -145 317 -145q-31 -49 -41 -123t-10 -229q0 -188 18.5 -246t75.5 -70v-22q-53 -20 -121.5 -91t-93.5 -122 q-84 55 -133 170l-141 -170q-162 96 -383 98zM369 193q152 -10 213 -25v289q-117 -48 -209 -58zM383 1264q145 225 199 329q23 -29 89 -80t103 -73q-104 -70 -297 -262q-18 16 -44.5 42t-49.5 44z" />
<glyph unicode="&#xe2;" horiz-adv-x="978" d="M68 41q29 78 28 297q0 104 -26 172q46 -6 98 -6q117 0 233.5 20.5t178.5 53.5v202q-162 -72 -271 -71q-76 0 -123 41t-73 155q6 0 17 -1t30 -1q264 0 420 88q133 -145 317 -145q-31 -49 -41 -123t-10 -229q0 -188 18.5 -246t75.5 -70v-22q-53 -20 -121.5 -91t-93.5 -122 q-84 55 -133 170l-141 -170q-162 96 -383 98zM178 1264q162 160 307 329q106 -113 205 -218t105 -111q-18 -14 -31.5 -27.5t-30 -29t-33.5 -29.5q-90 70 -213 159q-135 -96 -215 -159q-18 16 -44.5 41.5t-49.5 44.5zM369 193q152 -10 213 -25v289q-117 -48 -209 -58z" />
<glyph unicode="&#xe3;" horiz-adv-x="978" d="M68 41q29 78 28 297q0 104 -26 172q46 -6 98 -6q117 0 233.5 20.5t178.5 53.5v202q-162 -72 -271 -71q-76 0 -123 41t-73 155q6 0 17 -1t30 -1q264 0 420 88q133 -145 317 -145q-31 -49 -41 -123t-10 -229q0 -188 18.5 -246t75.5 -70v-22q-53 -20 -121.5 -91t-93.5 -122 q-84 55 -133 170l-141 -170q-162 96 -383 98zM143 1178v237q61 6 132 48t120 96l187 -146q106 14 252 148v-242q-156 -2 -250 -141l-191 145q-166 -2 -250 -145zM369 193q152 -10 213 -25v289q-117 -48 -209 -58z" />
<glyph unicode="&#xe4;" horiz-adv-x="978" d="M68 41q29 78 28 297q0 104 -26 172q46 -6 98 -6q117 0 233.5 20.5t178.5 53.5v202q-162 -72 -271 -71q-76 0 -123 41t-73 155q6 0 17 -1t30 -1q264 0 420 88q133 -145 317 -145q-31 -49 -41 -123t-10 -229q0 -188 18.5 -246t75.5 -70v-22q-53 -20 -121.5 -91t-93.5 -122 q-84 55 -133 170l-141 -170q-162 96 -383 98zM80 1331q90 154 196 209q23 -29 89.5 -80t103.5 -74q-78 -55 -124 -101t-77 -109q-14 18 -49 46.5t-84 66.5t-55 42zM369 193q152 -10 213 -25v289q-117 -48 -209 -58zM551 1331q90 154 197 209q23 -29 89 -80t103 -74 q-78 -55 -124 -101t-77 -109q-14 18 -49 46.5t-84 66.5t-55 42z" />
<glyph unicode="&#xe5;" horiz-adv-x="978" d="M68 41q29 78 28 297q0 104 -26 172q46 -6 98 -6q117 0 233.5 20.5t178.5 53.5v202q-162 -72 -271 -71q-76 0 -123 41t-73 155q6 0 17 -1t30 -1q264 0 420 88q133 -145 317 -145q-31 -49 -41 -123t-10 -229q0 -188 18.5 -246t75.5 -70v-22q-53 -20 -121.5 -91t-93.5 -122 q-84 55 -133 170l-141 -170q-162 96 -383 98zM256 1391q0 86 59.5 150.5t163.5 64.5q106 0 164.5 -62.5t58.5 -148.5q0 -88 -57 -152.5t-158 -64.5q-111 0 -171 63.5t-60 149.5zM369 193q152 -10 213 -25v289q-117 -48 -209 -58zM377 1391q0 -39 28.5 -68t77.5 -29 q43 0 70 30t27 69t-27 67.5t-74 28.5t-74.5 -29.5t-27.5 -68.5z" />
<glyph unicode="&#xe6;" horiz-adv-x="1456" d="M68 41q29 78 28 297q0 104 -26 172q46 -6 98 -6q117 0 233.5 20.5t178.5 53.5v202q-162 -72 -271 -71q-76 0 -123 41t-73 155q6 0 17 -1t30 -1q264 0 420 88q76 -84 165 -121q72 45 148 121q176 -37 450 -43q-6 -37 -6 -92q0 -225 54 -364q-203 -14 -506 -66v-74 q0 -61 -2 -110t-9 -74q27 -6 140.5 -7t148.5 -5q12 70 53 112.5t134 69.5q-2 -33 -2 -94q0 -121 24 -189q-86 -10 -205 -46t-172 -75q-104 80 -252 119q-10 -2 -49 -12t-59.5 -16.5t-55 -18.5t-66.5 -27.5t-62 -35.5q-162 96 -383 98zM369 193q152 -10 213 -25v289 q-117 -48 -209 -58zM874 803q2 -68 7.5 -154t5.5 -114l239 59q-25 94 -24 178q-105 0 -228 31z" />
<glyph unicode="&#xe7;" horiz-adv-x="917" d="M61 68q61 96 62 405q0 236 -45 377q227 39 444 141q137 -88 340 -125q-39 -78 -107.5 -126t-140.5 -48q-106 0 -241 125q20 -170 20 -309q0 -154 -20 -293q106 -45 243 -55q12 78 65.5 136t137.5 83q-2 -23 -2 -115q0 -117 25 -207q-66 -12 -145 -50t-109 -70 q-10 6 -53 28v-127h124l86 -63q0 -266 11 -283q-61 -2 -144.5 -23.5t-122.5 -48.5q-53 66 -124 66q-43 0 -78 -18q49 125 151 124q35 0 85 -12t71 -33q0 6 -1 32t-2 71t-1 74q-49 8 -92 8q-45 0 -80 -8q-6 7 -37 38q2 31 2 95v157q-176 49 -322 54z" />
<glyph unicode="&#xe8;" horiz-adv-x="944" d="M59 68q61 98 62 403q0 188 -45 338q147 29 305 182q176 -37 450 -43q-6 -37 -6 -92q0 -225 54 -364q-203 -14 -506 -66q-2 -59 -19 -217q96 -37 297 -53q12 70 53 112.5t134 69.5q-2 -33 -2 -94q0 -121 24 -189q-86 -10 -205 -46t-172 -75q-72 53 -207 92.5t-217 41.5z M227 1440q37 23 103.5 74t89.5 79q53 -104 198 -329q-23 -18 -49 -44t-45 -42q-193 193 -297 262zM352 807q18 -150 23 -272l239 59q-25 94 -24 178q-109 0 -238 35z" />
<glyph unicode="&#xe9;" horiz-adv-x="944" d="M59 68q61 98 62 403q0 188 -45 338q147 29 305 182q176 -37 450 -43q-6 -37 -6 -92q0 -225 54 -364q-203 -14 -506 -66q-2 -59 -19 -217q96 -37 297 -53q12 70 53 112.5t134 69.5q-2 -33 -2 -94q0 -121 24 -189q-86 -10 -205 -46t-172 -75q-72 53 -207 92.5t-217 41.5z M328 1264q145 225 198 329q23 -29 89.5 -80t103.5 -73q-104 -70 -297 -262q-18 16 -44.5 42t-49.5 44zM352 807q18 -150 23 -272l239 59q-25 94 -24 178q-109 0 -238 35z" />
<glyph unicode="&#xea;" horiz-adv-x="944" d="M59 68q61 98 62 403q0 188 -45 338q147 29 305 182q176 -37 450 -43q-6 -37 -6 -92q0 -225 54 -364q-203 -14 -506 -66q-2 -59 -19 -217q96 -37 297 -53q12 70 53 112.5t134 69.5q-2 -33 -2 -94q0 -121 24 -189q-86 -10 -205 -46t-172 -75q-72 53 -207 92.5t-217 41.5z M184 1264q162 160 308 329q106 -113 204.5 -218t104.5 -111q-18 -14 -31.5 -27.5t-30 -29t-32.5 -29.5q-90 70 -213 159q-135 -96 -215 -159q-18 16 -45 41.5t-50 44.5zM352 807q18 -150 23 -272l239 59q-25 94 -24 178q-109 0 -238 35z" />
<glyph unicode="&#xeb;" horiz-adv-x="944" d="M59 68q61 98 62 403q0 188 -45 338q147 29 305 182q176 -37 450 -43q-6 -37 -6 -92q0 -225 54 -364q-203 -14 -506 -66q-2 -59 -19 -217q96 -37 297 -53q12 70 53 112.5t134 69.5q-2 -33 -2 -94q0 -121 24 -189q-86 -10 -205 -46t-172 -75q-72 53 -207 92.5t-217 41.5z M66 1331q90 154 196 209q23 -29 89.5 -80t103.5 -74q-78 -55 -124 -101t-77 -109q-14 18 -49 46.5t-84 66.5t-55 42zM352 807q18 -150 23 -272l239 59q-25 94 -24 178q-109 0 -238 35zM537 1331q90 154 196 209q23 -29 89.5 -80t103.5 -74q-78 -55 -124 -101t-77 -109 q-14 18 -49 46.5t-84 66.5t-55 42z" />
<glyph unicode="&#xec;" horiz-adv-x="542" d="M51 1440q37 23 103.5 74t89.5 79q53 -104 198 -329q-23 -18 -49 -44t-45 -42q-193 193 -297 262zM63 909v23q165 24 306 61l37 -61v-752q0 -127 55 -149v-31q-113 -18 -242 -57h-10q-70 96 -70 221v713z" />
<glyph unicode="&#xed;" horiz-adv-x="542" d="M63 909v23q165 24 306 61l37 -61v-752q0 -127 55 -149v-31q-113 -18 -242 -57h-10q-70 96 -70 221v713zM90 1264q145 225 199 329q23 -29 89 -80t103 -73q-104 -70 -297 -262q-18 16 -44.5 42t-49.5 44z" />
<glyph unicode="&#xee;" horiz-adv-x="542" d="M-33 1264q162 160 307 329q106 -113 205 -218t105 -111q-18 -14 -31.5 -27.5t-30 -29t-33.5 -29.5q-90 70 -213 159q-135 -96 -215 -159q-18 16 -44.5 41.5t-49.5 44.5zM63 909v23q165 24 306 61l37 -61v-752q0 -127 55 -149v-31q-113 -18 -242 -57h-10q-70 96 -70 221 v713z" />
<glyph unicode="&#xef;" horiz-adv-x="542" d="M-152 1331q90 154 197 209q23 -29 89.5 -80t103.5 -74q-78 -55 -124 -101t-77 -109q-14 18 -49 46.5t-84.5 66.5t-55.5 42zM63 909v23q165 24 306 61l37 -61v-752q0 -127 55 -149v-31q-113 -18 -242 -57h-10q-70 96 -70 221v713zM319 1331q90 154 197 209 q23 -29 89.5 -80t103.5 -74q-78 -55 -124 -101t-77 -109q-14 18 -49 46.5t-84.5 66.5t-55.5 42z" />
<glyph unicode="&#xf0;" horiz-adv-x="1060" d="M63 49q55 49 56 287q0 119 -15.5 263t-31.5 165q197 147 270 221l344 -125q-68 207 -133 338l-227 -45l-27 135l182 37q-107 178 -250 289h297q100 -98 191 -240l229 49l37 -135l-194 -41q156 -299 174 -596q-10 -98 -11 -178q0 -135 23 -299q-100 -12 -223 -77.5 t-207 -153.5q-45 35 -197.5 72.5t-240.5 37.5q-20 0 -46 -4zM365 803q18 -172 18 -311q0 -121 -10 -281q176 -20 309 -59l4 579q-221 18 -321 72z" />
<glyph unicode="&#xf1;" horiz-adv-x="1064" d="M66 909v23q164 25 305 61l37 -61v-170q162 104 301 250q80 -72 131 -110t129 -75q-29 -102 -29 -440q0 -264 18 -348q-156 -57 -311 -221l-12 12q20 74 36.5 212t16.5 196q0 78 -1 233.5t-1 233.5l-27 28l-251 -112v-441q0 -127 55 -149v-31h-377v31q55 20 55 131v715z M215 1178v237q61 6 132 48t120 96l186 -146q106 14 252 148v-242q-156 -2 -250 -141l-190 145q-166 -2 -250 -145z" />
<glyph unicode="&#xf2;" horiz-adv-x="1046" d="M61 49q55 49 56 287q0 119 -15.5 263t-31.5 165q169 28 368 227q246 -80 410 -80q72 0 115 7q-25 -131 -25 -314q0 -221 37 -430q-100 -12 -223 -77.5t-207 -153.5q-45 35 -197.5 72.5t-241.5 37.5q-20 0 -45 -4zM289 1440q37 23 103.5 74t88.5 79q54 -104 199 -329 q-23 -18 -49.5 -44t-44.5 -42q-193 193 -297 262zM362 803q18 -172 19 -311q0 -121 -10 -281q176 -20 309 -59l4 579q-221 18 -322 72z" />
<glyph unicode="&#xf3;" horiz-adv-x="1046" d="M61 49q55 49 56 287q0 119 -15.5 263t-31.5 165q169 28 368 227q246 -80 410 -80q72 0 115 7q-25 -131 -25 -314q0 -221 37 -430q-100 -12 -223 -77.5t-207 -153.5q-45 35 -197.5 72.5t-241.5 37.5q-20 0 -45 -4zM362 803q18 -172 19 -311q0 -121 -10 -281 q176 -20 309 -59l4 579q-221 18 -322 72zM367 1264q145 225 198 329q23 -29 89.5 -80t103.5 -73q-104 -70 -297 -262q-18 16 -44.5 42t-49.5 44z" />
<glyph unicode="&#xf4;" horiz-adv-x="1046" d="M61 49q55 49 56 287q0 119 -15.5 263t-31.5 165q169 28 368 227q246 -80 410 -80q72 0 115 7q-25 -131 -25 -314q0 -221 37 -430q-100 -12 -223 -77.5t-207 -153.5q-45 35 -197.5 72.5t-241.5 37.5q-20 0 -45 -4zM225 1264q162 160 307 329q106 -113 205 -218t105 -111 q-18 -14 -31.5 -27.5t-30 -29t-32.5 -29.5q-90 70 -213 159q-135 -96 -216 -159q-18 16 -44.5 41.5t-49.5 44.5zM362 803q18 -172 19 -311q0 -121 -10 -281q176 -20 309 -59l4 579q-221 18 -322 72z" />
<glyph unicode="&#xf5;" horiz-adv-x="1046" d="M61 49q55 49 56 287q0 119 -15.5 263t-31.5 165q169 28 368 227q246 -80 410 -80q72 0 115 7q-25 -131 -25 -314q0 -221 37 -430q-100 -12 -223 -77.5t-207 -153.5q-45 35 -197.5 72.5t-241.5 37.5q-20 0 -45 -4zM190 1178v237q61 6 132 48t120 96l187 -146 q106 14 252 148v-242q-156 -2 -250 -141l-191 145q-166 -2 -250 -145zM362 803q18 -172 19 -311q0 -121 -10 -281q176 -20 309 -59l4 579q-221 18 -322 72z" />
<glyph unicode="&#xf6;" horiz-adv-x="1046" d="M61 49q55 49 56 287q0 119 -15.5 263t-31.5 165q169 28 368 227q246 -80 410 -80q72 0 115 7q-25 -131 -25 -314q0 -221 37 -430q-100 -12 -223 -77.5t-207 -153.5q-45 35 -197.5 72.5t-241.5 37.5q-20 0 -45 -4zM106 1331q90 154 197 209q23 -29 89.5 -80t103.5 -74 q-78 -55 -124 -101t-77 -109q-14 18 -49 46.5t-84.5 66.5t-55.5 42zM362 803q18 -172 19 -311q0 -121 -10 -281q176 -20 309 -59l4 579q-221 18 -322 72zM578 1331q90 154 196 209q23 -29 89.5 -80t103.5 -74q-78 -55 -124 -101t-77 -109q-14 18 -49 46.5t-84 66.5t-55 42z " />
<glyph unicode="&#xf7;" horiz-adv-x="933" d="M80 596v283q76 -37 231 -37h310q156 0 231 37v-283q-96 35 -229 35h-314q-133 0 -229 -35zM285 299q90 154 196 209q23 -29 89.5 -80t103.5 -74q-78 -55 -124 -101t-77 -110q-14 18 -49 47t-84 67t-55 42zM285 1120q90 154 196 209q23 -29 89.5 -80t103.5 -73 q-78 -55 -124 -101.5t-77 -109.5q-14 18 -49 46.5t-84 66.5t-55 42z" />
<glyph unicode="&#xf8;" horiz-adv-x="1226" d="M-16 -20l196 167q14 70 14.5 189t-15 263t-32.5 165q170 28 369 227q246 -80 410 -80q72 0 114 7q-4 -14 -8 -44l90 76h123l-225 -192q-4 -94 -4 -154q0 -221 37 -430q-100 -12 -223 -77.5t-207 -153.5q-45 35 -191.5 70.5t-238.5 39.5l-87 -73h-122zM440 803 q19 -172 19 -311q0 -70 -2 -109l305 260v88q-221 18 -322 72zM449 211q176 -20 309 -59l2 385l-307 -263z" />
<glyph unicode="&#xf9;" horiz-adv-x="1085" d="M35 885l2 22q86 10 202.5 37t170.5 49q-14 -106 -15 -288v-414l86 -66l197 86v320q0 143 -16.5 187t-75.5 61v26q209 14 358 86v-483q0 -190 17.5 -255t74.5 -75v-22q-53 -23 -122.5 -92.5t-92.5 -120.5q-68 57 -98.5 106t-38.5 121q-211 -109 -326 -227 q-137 119 -260 184q14 23 27.5 159t13.5 269q0 152 -22.5 221.5t-81.5 108.5zM307 1440q37 23 103.5 74t89.5 79q53 -104 198 -329q-23 -18 -49 -44t-45 -42q-193 193 -297 262z" />
<glyph unicode="&#xfa;" horiz-adv-x="1085" d="M35 885l2 22q86 10 202.5 37t170.5 49q-14 -106 -15 -288v-414l86 -66l197 86v320q0 143 -16.5 187t-75.5 61v26q209 14 358 86v-483q0 -190 17.5 -255t74.5 -75v-22q-53 -23 -122.5 -92.5t-92.5 -120.5q-68 57 -98.5 106t-38.5 121q-211 -109 -326 -227 q-137 119 -260 184q14 23 27.5 159t13.5 269q0 152 -22.5 221.5t-81.5 108.5zM346 1264q145 225 199 329q23 -29 89 -80t103 -73q-104 -70 -297 -262q-18 16 -44.5 42t-49.5 44z" />
<glyph unicode="&#xfb;" horiz-adv-x="1085" d="M35 885l2 22q86 10 202.5 37t170.5 49q-14 -106 -15 -288v-414l86 -66l197 86v320q0 143 -16.5 187t-75.5 61v26q209 14 358 86v-483q0 -190 17.5 -255t74.5 -75v-22q-53 -23 -122.5 -92.5t-92.5 -120.5q-68 57 -98.5 106t-38.5 121q-211 -109 -326 -227 q-137 119 -260 184q14 23 27.5 159t13.5 269q0 152 -22.5 221.5t-81.5 108.5zM223 1264q162 160 307 329q106 -113 205 -218t105 -111q-18 -14 -31.5 -27.5t-30 -29t-33.5 -29.5q-90 70 -213 159q-135 -96 -215 -159q-18 16 -44.5 41.5t-49.5 44.5z" />
<glyph unicode="&#xfc;" horiz-adv-x="1085" d="M35 885l2 22q86 10 202.5 37t170.5 49q-14 -106 -15 -288v-414l86 -66l197 86v320q0 143 -16.5 187t-75.5 61v26q209 14 358 86v-483q0 -190 17.5 -255t74.5 -75v-22q-53 -23 -122.5 -92.5t-92.5 -120.5q-68 57 -98.5 106t-38.5 121q-211 -109 -326 -227 q-137 119 -260 184q14 23 27.5 159t13.5 269q0 152 -22.5 221.5t-81.5 108.5zM104 1331q90 154 197 209q23 -29 89.5 -80t103.5 -74q-78 -55 -124 -101t-77 -109q-14 18 -49 46.5t-84.5 66.5t-55.5 42zM575 1331q90 154 197 209q23 -29 89.5 -80t103.5 -74 q-78 -55 -124 -101t-77 -109q-14 18 -49 46.5t-84.5 66.5t-55.5 42z" />
<glyph unicode="&#xfd;" horiz-adv-x="1089" d="M27 -362q35 178 135 272q47 -4 176 -72.5t211 -132.5l153 49q-16 90 -18 455q-213 -113 -319 -225q-137 119 -261 184q14 20 27.5 150.5t13.5 256.5q0 141 -22.5 208t-81.5 102l2 22q86 10 202.5 37t170.5 49q-14 -106 -15 -288v-373l86 -66l197 86v279q0 143 -16.5 187 t-75.5 61v26q209 14 358 86v-942q0 -270 17 -346q-115 0 -261.5 -65.5t-250.5 -163.5q-223 164 -428 164zM422 1264q145 225 199 329q23 -29 89 -80t103 -73q-104 -70 -297 -262q-18 16 -44.5 42t-49.5 44z" />
<glyph unicode="&#xfe;" horiz-adv-x="1089" d="M63 -580q72 84 72 320v1499q0 109 -12 173.5t-49 129.5q43 -14 96 -14q125 0 303 86q-72 -84 -72 -320v-456q147 102 387 157q94 -102 224 -139q-31 -113 -31 -317q0 -352 35 -424q-166 -29 -377 -174q-119 49 -238 61v-207q0 -109 12.5 -173t49.5 -130q-43 14 -96 14 q-125 0 -304 -86zM401 184q66 -4 170 -41q72 61 142 93q-6 59 -6 268q0 129 10 252q-78 -2 -173 -31t-143 -59v-482z" />
<glyph unicode="&#xff;" horiz-adv-x="1089" d="M27 -362q35 178 135 272q47 -4 176 -72.5t211 -132.5l153 49q-16 90 -18 455q-213 -113 -319 -225q-137 119 -261 184q14 20 27.5 150.5t13.5 256.5q0 141 -22.5 208t-81.5 102l2 22q86 10 202.5 37t170.5 49q-14 -106 -15 -288v-373l86 -66l197 86v279q0 143 -16.5 187 t-75.5 61v26q209 14 358 86v-942q0 -270 17 -346q-115 0 -261.5 -65.5t-250.5 -163.5q-223 164 -428 164zM119 1331q90 154 196 209q23 -29 89.5 -80t103.5 -74q-78 -55 -124 -101t-77 -109q-14 18 -49 46.5t-84 66.5t-55 42zM590 1331q90 154 196 209q23 -29 89.5 -80 t103.5 -74q-78 -55 -124 -101t-77 -109q-14 18 -49 46.5t-84 66.5t-55 42z" />
<glyph unicode="&#x152;" horiz-adv-x="1902" d="M29 1516q78 -18 274.5 -40t384.5 -22q403 0 627 107q76 -37 106.5 -50.5t73.5 -23.5t92 -10q95 -1 199 24q-2 -127 -78 -190.5t-170 -63.5q-53 0 -109.5 29t-87.5 61q-23 -20 -80 -41.5t-79 -21.5q-8 -49 -8 -369q61 -10 96 -10q68 0 151 59q8 -6 40 -35.5t51.5 -47 t53 -41t64.5 -37.5q-33 -16 -65.5 -39t-83.5 -66t-58 -47q-80 70 -145 70q-47 0 -98 -15q-16 -92 -17 -227q0 -121 17 -231q23 -16 53.5 -28.5t84.5 -31t95 -35.5q4 6 33 17.5t54.5 20.5t27.5 9q-14 109 -27 134q160 145 338 219q-45 -82 -45 -246q0 -121 25 -166 q-41 -20 -150.5 -76.5t-247.5 -117.5q-57 8 -164.5 23t-193.5 28.5t-156 27.5q-500 -76 -737 -75q-61 0 -92 2q178 129 178 422q0 129 -36 244.5t-73 142.5q14 14 27 30q92 119 92 375q0 53 -4 94q-27 6 -59 19q-152 63 -174 246zM510 113q18 6 160.5 38.5t183.5 45.5 q47 127 47 256q0 213 -74 303q70 70 70 276q0 113 -20 215q-266 -4 -326 -4q-35 -96 -35 -534q0 -242 -6 -596z" />
<glyph unicode="&#x153;" horiz-adv-x="1505" d="M61 49q55 49 56 287q0 119 -15.5 263t-31.5 165q169 28 368 227q162 -25 254 -24q104 0 207 18q135 -27 494 -37q-6 -37 -7 -92q0 -225 54 -364q-203 -14 -506 -66q-2 -59 -19 -217q96 -37 297 -53q12 70 53.5 112.5t133.5 69.5q-2 -33 -2 -94q0 -121 24 -189 q-86 -10 -204.5 -46t-172.5 -75q-61 45 -170.5 81t-201.5 48q-63 -55 -127 -120q-45 35 -197.5 72.5t-241.5 37.5q-20 0 -45 -4zM362 803q18 -172 19 -311q0 -121 -10 -281q154 -18 282 -53q29 129 29 313q0 147 -18 262q-205 18 -302 70zM920 807q18 -125 18 -203 q0 -47 -2 -69l240 59q-25 94 -25 178q-102 0 -231 35z" />
<glyph unicode="&#x178;" horiz-adv-x="1550" d="M-35 1507q178 -2 241.5 -23.5t110.5 -72.5q53 96 244 105q-59 -82 -59 -162q0 -12 4 -37l217 -508l78 -80l76 78l208 510q2 12 2 37q0 61 -77 162q102 -51 270 -52q51 0 145.5 26t178.5 26q-158 -96 -321 -383t-165 -424q-37 -23 -68.5 -59t-69.5 -90t-54 -75 q4 -125 35.5 -253t76.5 -177q-96 -66 -150 -122t-85 -138q-35 143 -273 260q100 150 109 428q-12 12 -54 58.5t-61.5 66t-52.5 47t-61 43.5q0 193 -137.5 448t-307.5 361zM422 1749q82 137 176 186q47 -55 172 -137q-70 -51 -111 -91t-69 -97q-16 22 -168 139zM829 1749 q82 137 177 186q47 -55 172 -137q-70 -51 -111 -91t-70 -97q-16 22 -168 139z" />
<glyph unicode="&#x2c6;" horiz-adv-x="657" d="M20 1264q162 160 308 329q106 -113 204.5 -218t104.5 -111q-18 -14 -31.5 -27.5t-30 -29t-32.5 -29.5q-90 70 -213 159q-135 -96 -215 -159q-18 16 -45 41.5t-50 44.5z" />
<glyph unicode="&#x2dc;" horiz-adv-x="772" d="M41 1178v237q61 6 132 48t120 96l186 -146q106 14 252 148v-242q-156 -2 -250 -141l-190 145q-166 -2 -250 -145z" />
<glyph unicode="&#x2000;" horiz-adv-x="968" />
<glyph unicode="&#x2001;" horiz-adv-x="1937" />
<glyph unicode="&#x2002;" horiz-adv-x="968" />
<glyph unicode="&#x2003;" horiz-adv-x="1937" />
<glyph unicode="&#x2004;" horiz-adv-x="645" />
<glyph unicode="&#x2005;" horiz-adv-x="484" />
<glyph unicode="&#x2006;" horiz-adv-x="322" />
<glyph unicode="&#x2007;" horiz-adv-x="322" />
<glyph unicode="&#x2008;" horiz-adv-x="242" />
<glyph unicode="&#x2009;" horiz-adv-x="387" />
<glyph unicode="&#x200a;" horiz-adv-x="107" />
<glyph unicode="&#x2010;" horiz-adv-x="919" d="M125 406v282q76 -37 231 -37h207q156 0 232 37v-282q-96 35 -230 34h-211q-133 0 -229 -34z" />
<glyph unicode="&#x2011;" horiz-adv-x="919" d="M125 406v282q76 -37 231 -37h207q156 0 232 37v-282q-96 35 -230 34h-211q-133 0 -229 -34z" />
<glyph unicode="&#x2012;" horiz-adv-x="919" d="M125 406v282q76 -37 231 -37h207q156 0 232 37v-282q-96 35 -230 34h-211q-133 0 -229 -34z" />
<glyph unicode="&#x2013;" horiz-adv-x="1021" d="M125 406v282q76 -37 231 -37h310q156 0 231 37v-282q-96 35 -229 34h-314q-133 0 -229 -34z" />
<glyph unicode="&#x2014;" horiz-adv-x="1021" d="M125 406v282q76 -37 231 -37h310q156 0 231 37v-282q-96 35 -229 34h-314q-133 0 -229 -34z" />
<glyph unicode="&#x2018;" horiz-adv-x="466" d="M63 1210q16 47 41 93.5t64 96.5t97.5 83t127.5 39q-55 -63 -55 -154q0 -98 55 -168q-45 -37 -67.5 -81t-42.5 -122q-76 0 -143.5 54.5t-76.5 158.5z" />
<glyph unicode="&#x2019;" horiz-adv-x="481" d="M96 997q55 63 56 154q-1 98 -56 168q45 37 67.5 81t43.5 122q76 0 143.5 -54.5t75.5 -158.5q-16 -47 -41 -93.5t-63.5 -96.5t-97 -82.5t-128.5 -39.5z" />
<glyph unicode="&#x201a;" horiz-adv-x="477" d="M72 92q45 37 67.5 81t42.5 122q76 0 143.5 -54.5t75.5 -158.5q-16 -47 -40.5 -93t-63.5 -96.5t-97.5 -83t-127.5 -38.5q55 63 55 153q0 98 -55 168z" />
<glyph unicode="&#x201c;" horiz-adv-x="876" d="M63 1210q16 47 41 93.5t64 96.5t97.5 83t127.5 39q-55 -63 -55 -154q0 -98 55 -168q-45 -37 -67.5 -81t-42.5 -122q-76 0 -143.5 54.5t-76.5 158.5zM473 1210q16 47 41 93.5t63.5 96.5t97 83t128.5 39q-55 -63 -55 -154q0 -98 55 -168q-45 -37 -67.5 -81t-43.5 -122 q-76 0 -143.5 54.5t-75.5 158.5z" />
<glyph unicode="&#x201d;" horiz-adv-x="890" d="M96 997q55 63 56 154q-1 98 -56 168q45 37 67.5 81t43.5 122q76 0 143.5 -54.5t75.5 -158.5q-16 -47 -41 -93.5t-63.5 -96.5t-97 -82.5t-128.5 -39.5zM506 997q55 63 55 154q0 98 -55 168q45 37 67.5 81t42.5 122q76 0 143.5 -54.5t76.5 -158.5q-16 -47 -41 -93.5 t-64 -96.5t-97.5 -82.5t-127.5 -39.5z" />
<glyph unicode="&#x201e;" horiz-adv-x="907" d="M72 92q45 37 67.5 81t42.5 122q76 0 143.5 -54.5t75.5 -158.5q-16 -47 -40.5 -93t-63.5 -96.5t-97.5 -83t-127.5 -38.5q55 63 55 153q0 98 -55 168zM502 92q45 37 67.5 81t42.5 122q76 0 143.5 -54.5t75.5 -158.5q-16 -47 -40.5 -93t-63.5 -96.5t-97.5 -83t-127.5 -38.5 q55 63 55 153q0 98 -55 168z" />
<glyph unicode="&#x2022;" horiz-adv-x="741" d="M111 625q119 47 176 113.5t98 166.5q59 -205 252 -295q-96 -33 -156.5 -86t-115.5 -184q-37 115 -88 175.5t-166 109.5z" />
<glyph unicode="&#x2026;" horiz-adv-x="1353" d="M55 45q90 154 197 209q23 -29 89.5 -80t102.5 -74q-78 -55 -124 -101t-76 -110q-14 18 -49 47t-84.5 67t-55.5 42zM485 45q90 154 197 209q23 -29 89.5 -80t102.5 -74q-78 -55 -123.5 -101t-76.5 -110q-14 18 -49 47t-84.5 67t-55.5 42zM915 45q90 154 197 209 q23 -29 89.5 -80t103.5 -74q-78 -55 -124 -101t-77 -110q-14 18 -49 47t-84.5 67t-55.5 42z" />
<glyph unicode="&#x202f;" horiz-adv-x="387" />
<glyph unicode="&#x2039;" horiz-adv-x="804" d="M49 475l412 457q6 -4 63.5 -12.5t96.5 -8.5q66 0 129 21q-23 -23 -111 -123t-184.5 -210t-108.5 -124q6 -8 107.5 -128t188.5 -221t110 -124q-76 20 -144 21q-70 0 -145 -21z" />
<glyph unicode="&#x203a;" horiz-adv-x="804" d="M53 2q23 23 110 124t188.5 221t107.5 128q-12 14 -108.5 124t-184.5 210t-111 123q63 -20 129 -21q39 0 96.5 8.5t63.5 12.5l412 -457l-414 -473q-76 20 -145 21q-68 0 -144 -21z" />
<glyph unicode="&#x205f;" horiz-adv-x="484" />
<glyph unicode="&#x20ac;" horiz-adv-x="1294" d="M80 1524q231 -25 471 -25q174 0 361.5 14.5t215.5 14.5q27 0 52 -4q-23 -47 -54.5 -264.5t-31.5 -264.5q-78 53 -112 117t-54 172q-47 35 -180 35q-39 0 -102.5 -2t-78.5 -2q-25 -63 -30 -291h155q156 0 232 37v-287q-96 35 -230 35h-157v-193h155q156 0 232 37v-286 q-96 35 -230 34h-153q2 -82 2 -225q43 -10 94 -24.5t74.5 -19.5t73 -11t122.5 -10q20 86 59.5 162.5t77 123.5t117.5 140q10 -96 16.5 -213t11.5 -177.5t13 -80.5q-98 -23 -183 -71t-200 -145q-106 66 -235 113t-291 91t-197 57q55 14 98.5 95t53.5 185q-47 -8 -96 -24v286 q37 -18 100 -30q0 33 1 91t1 85q-57 -10 -102 -25v287q49 -25 106 -31v180q0 61 -6 136q-47 20 -98.5 71t-73.5 107z" />
<glyph unicode="&#x2122;" horiz-adv-x="1564" d="M96 1360q66 51 111 141q53 -10 113.5 -27.5t101.5 -24.5t100 -7q70 0 162 12q-10 -10 -35.5 -45t-42 -51.5t-58.5 -34.5t-97 -23v-186q0 -250 43 -266q-2 0 -4 -1l-3 -1q-74 -35 -116 -103q-49 88 -115 105q33 49 33 260v215q-98 27 -193 37zM653 739q43 61 61.5 94 t34 90.5t15.5 131.5v252q0 135 -78 192q94 -8 150.5 -24.5t92.5 -57.5t51 -75.5t44 -118.5t55 -144q92 262 172 344t217 86q-74 -92 -73 -247v-234q0 -180 35 -211q-2 -2 -24 -11t-36 -16.5t-31.5 -21.5t-25.5 -29q-45 59 -127 82q51 35 51 266v72l-162 -319l-164 315v-68 q0 -145 19.5 -213.5t70.5 -130.5q-121 14 -172 95q-55 -88 -176 -99z" />
<glyph unicode="&#xe000;" horiz-adv-x="990" d="M0 990h990v-990h-990v990z" />
<glyph unicode="&#xfb01;" horiz-adv-x="1308" d="M31 803v22q86 33 170 107v86q0 197 -6.5 259t-34.5 120q98 25 213.5 78t185.5 112q111 -98 264 -127q-55 -154 -170 -153q-94 0 -172 94l-41 -27q27 -96 27 -397v-45h283q84 0 205 18t180 43l36 -61v-752q0 -127 56 -149v-31q-115 -18 -242 -57h-10q-70 96 -70 221v713 q-82 0 -134 -19.5t-68.5 -38t-40.5 -57.5l-195 26v-516q0 -129 26.5 -179t100.5 -68v-25q-135 -2 -254 -57q-98 53 -256 57v25q63 14 90 70.5t27 209.5v498h-170zM846 1274q90 154 196 209q23 -29 89.5 -80t103.5 -74q-78 -55 -124 -101t-77 -110q-14 18 -49 47t-84 67 t-55 42z" />
<glyph unicode="&#xfb02;" horiz-adv-x="1323" d="M31 803v22q86 33 170 107v86q0 197 -6.5 259t-34.5 120q98 25 213.5 78t185.5 112q133 -72 373 -123h12q41 0 88 23.5t110.5 64.5t104.5 62q-72 -84 -71 -320v-991q0 -162 25.5 -232.5t117.5 -183.5l-12 -18q-39 18 -89.5 40.5t-67.5 31t-40 24t-43 35.5 q-137 -57 -262 -57l-2 14q106 51 106 231v1051q0 86 -12 127q-51 -86 -135 -86q-92 0 -281 121l-41 -27q27 -96 27 -397v-45h289v-8q-63 -68 -94 -162l-195 26v-516q0 -129 26.5 -179t100.5 -68v-25q-135 -2 -254 -57q-98 53 -256 57v25q63 14 90 70.5t27 209.5v498h-170z " />
<glyph unicode="&#xfb03;" horiz-adv-x="2048" d="M1569 909v23q165 24 306 61l37 -61v-752q0 -127 55 -149v-31q-113 -18 -242 -57h-10q-70 96 -70 221v713zM1588 1331q90 154 197 209q23 -29 89 -80t103 -74q-78 -55 -124 -101t-77 -109q-14 18 -49 46.5t-84 66.5t-55 42zM784 803v22q86 33 170 107v86q0 197 -6.5 259 t-34.5 120q98 25 213.5 78t185.5 112q131 -70 383 -125q-63 -182 -180 -182q-92 0 -281 121l-41 -27q27 -96 27 -397v-45h289v-8q-63 -68 -94 -162l-195 26v-516q0 -129 26.5 -179t100.5 -68v-25q-135 -2 -254 -57q-98 53 -256 57v25q63 14 90 70.5t27 209.5v498h-170z M31 803v22q86 33 170 107v86q0 197 -6.5 259t-34.5 120q98 25 213.5 78t185.5 112q131 -70 383 -125q-63 -182 -180 -182q-92 0 -281 121l-41 -27q27 -96 27 -397v-45h289v-8q-63 -68 -94 -162l-195 26v-516q0 -129 26.5 -179t100.5 -68v-25q-135 -2 -254 -57 q-98 53 -256 57v25q63 14 90 70.5t27 209.5v498h-170z" />
<glyph unicode="&#xfb04;" horiz-adv-x="2061" d="M1543 -43q106 51 106 231v1051q0 109 -12 173.5t-49 129.5q43 -14 96 -14q125 0 303 86q-71 -83 -71 -314v-6v-991q0 -162 25.5 -232.5t117.5 -183.5l-12 -18q-39 18 -89.5 40.5t-67.5 31t-39.5 24t-43.5 35.5q-137 -57 -262 -57zM784 803v22q86 33 170 107v86 q0 197 -6.5 259t-34.5 120q98 25 213.5 78t185.5 112q131 -70 383 -125q-63 -182 -180 -182q-92 0 -281 121l-41 -27q27 -96 27 -397v-45h289v-8q-63 -68 -94 -162l-195 26v-516q0 -129 26.5 -179t100.5 -68v-25q-135 -2 -254 -57q-98 53 -256 57v25q63 14 90 70.5t27 209.5 v498h-170zM31 803v22q86 33 170 107v86q0 197 -6.5 259t-34.5 120q98 25 213.5 78t185.5 112q131 -70 383 -125q-63 -182 -180 -182q-92 0 -281 121l-41 -27q27 -96 27 -397v-45h289v-8q-63 -68 -94 -162l-195 26v-516q0 -129 26.5 -179t100.5 -68v-25q-135 -2 -254 -57 q-98 53 -256 57v25q63 14 90 70.5t27 209.5v498h-170z" />
</font>
</defs>
</svg>
